<?xml version="1.0" encoding="UTF-8" standalone="no"?>
<svg
   xmlns:dc="http://purl.org/dc/elements/1.1/"
   xmlns:cc="http://creativecommons.org/ns#"
   xmlns:rdf="http://www.w3.org/1999/02/22-rdf-syntax-ns#"
   xmlns:svg="http://www.w3.org/2000/svg"
   xmlns="http://www.w3.org/2000/svg"
   id="svg26"
   version="1.1"
   viewBox="0 0 87 120.91582"
   height="120.91583"
   width="87">
  <defs
     id="defs21" />
  <g
     id="g1647">
    <g
       id="g890">
      <path
         id="path866"
         d="M 86.000002,92.184662 A 19.600725,19.600725 0 0 1 66.399277,111.78539 19.600725,19.600725 0 0 1 46.798552,92.184662 19.600725,19.600725 0 0 1 66.399277,72.583937 19.600725,19.600725 0 0 1 86.000002,92.184662 Z"
         style="fill:#103852;stroke-width:2.90526" />
    </g>
    <g
       aria-label="AC"
       id="text1502"
       style="font-size:18.6667px;font-family:Lato;-inkscape-font-specification:'Lato, Normal';letter-spacing:0px;word-spacing:0px;fill:#ffffff;stroke-width:1px">
      <path
         d="m 66.604626,98.984009 h -1.400003 q -0.242667,0 -0.392001,-0.121334 -0.149333,-0.121333 -0.224,-0.308 l -1.250669,-3.229339 h -6.001344 l -1.250669,3.229339 q -0.056,0.168 -0.214667,0.298667 -0.158667,0.130667 -0.392001,0.130667 H 54.07927 l 5.348009,-13.374691 h 1.829337 z M 57.84061,94.018666 h 4.993342 l -2.100004,-5.441343 q -0.102666,-0.242667 -0.205333,-0.560001 -0.09333,-0.317334 -0.196001,-0.681334 -0.09333,0.364 -0.196,0.690668 -0.09333,0.317334 -0.196,0.560001 z"
         id="path22" />
      <path
         d="m 77.412587,96.221337 q 0.149333,0 0.261333,0.121334 l 0.718668,0.774668 q -0.821334,0.952001 -1.997337,1.484002 -1.166668,0.532001 -2.828005,0.532001 -1.437336,0 -2.613338,-0.494667 -1.176002,-0.504001 -2.00667,-1.400003 -0.830668,-0.905335 -1.288002,-2.165337 -0.457335,-1.260002 -0.457335,-2.772005 0,-1.512003 0.476001,-2.772005 0.476001,-1.260002 1.334669,-2.165337 0.868002,-0.905335 2.072004,-1.400003 1.204002,-0.504001 2.660005,-0.504001 1.428003,0 2.520005,0.457335 1.092001,0.457334 1.92267,1.241335 l -0.597335,0.830668 q -0.056,0.09333 -0.149333,0.158667 -0.084,0.056 -0.233334,0.056 -0.168,0 -0.410668,-0.177333 -0.242667,-0.186667 -0.634667,-0.410668 -0.392001,-0.224 -0.980002,-0.401334 -0.588001,-0.186667 -1.446669,-0.186667 -1.036002,0 -1.89467,0.364001 -0.858669,0.354667 -1.484003,1.036002 -0.616001,0.681334 -0.961335,1.661336 -0.345334,0.980002 -0.345334,2.212004 0,1.250669 0.354667,2.230671 0.364001,0.980002 0.980002,1.661336 0.625334,0.672001 1.465336,1.026669 0.849335,0.354667 1.829337,0.354667 0.597334,0 1.073335,-0.06533 0.485334,-0.07467 0.886668,-0.224 0.410667,-0.149334 0.756001,-0.373334 0.354668,-0.233334 0.700002,-0.550668 0.158667,-0.14 0.317334,-0.14 z"
         id="path24" />
    </g>
  </g>
  <title
     id="title913">Logo for slides for W3C AC 2022</title>
  <metadata
     id="metadata2">
    <rdf:RDF>
         rdf:about=&quot;&quot;&gt;
      <cc:Work
   rdf:about="">
  <dc:format>image/svg+xml</dc:format>
  <dc:type
     rdf:resource="http://purl.org/dc/dcmitype/StillImage" />
  <dc:title>Logo for slides for W3C AC 2022</dc:title>
  <dc:date>2020-12-22</dc:date>
  <dc:creator>
    <cc:Agent>
      <dc:title>Bert Bos</dc:title>
    </cc:Agent>
  </dc:creator>
  <dc:description
     xml:lang="en">W3C logo in a white circle above the words &quot;AC 2022&quot;</dc:description>
  <dc:language>en</dc:language>
  <dc:publisher>
    <cc:Agent>
      <dc:title>http://www.w3.org/</dc:title>
    </cc:Agent>
  </dc:publisher>
  <cc:license
     rdf:resource="https://www.w3.org/Consortium/Legal/2002/ipr-notice-20021231#Copyright" />
</cc:Work>
</rdf:RDF>
  </metadata>
  <!-- A white circle with the W3C logo -->
  <desc
     id="desc15">W3C AC 2022</desc>
  <g
     id="g845">
    <path
       id="circle13"
       d="M 86,43 A 43,43 0 0 1 43,86 43,43 0 0 1 0,43 43,43 0 0 1 43,0 43,43 0 0 1 86,43 Z"
       style="fill:#25599c" />
    <svg
       version="1.1"
       viewBox="0 0 68 34"
       height="34"
       width="68"
       y="27"
       x="10"
       id="W3C">
      <path
         id="path17"
         style="fill:#ffffff"
         d="m 16.117,1.006 5.759,19.58 5.759,-19.58 h 4.17 11.444 V 2.952 L 37.37,13.08 c 2.065,0.663 3.627,1.868 4.686,3.615 1.059,1.748 1.589,3.799 1.589,6.155 0,2.914 -0.775,5.363 -2.324,7.348 -1.549,1.985 -3.555,2.978 -6.017,2.978 -1.854,0 -3.469,-0.589 -4.845,-1.767 -1.377,-1.178 -2.396,-2.773 -3.058,-4.786 l 3.256,-1.35 c 0.477,1.218 1.106,2.178 1.887,2.879 0.781,0.702 1.701,1.052 2.76,1.052 1.112,0 2.052,-0.622 2.82,-1.866 0.768,-1.245 1.152,-2.74 1.152,-4.489 0,-1.933 -0.411,-3.429 -1.231,-4.488 -0.954,-1.244 -2.45,-1.867 -4.489,-1.867 h -1.588 v -1.906 l 5.56,-9.612 h -6.712 l -0.382,0.65 -8.163,27.548 H 21.874 L 15.916,13.237 9.959,33.174 H 9.562 L 0.032,1.006 h 4.17 L 9.961,20.586 13.853,7.401 11.947,1.006 Z" />
      <path
         id="path19"
         style="fill:#ffffff"
         d="m 64.92,1.006 c -0.819,0 -1.554,0.295 -2.111,0.861 -0.591,0.6 -0.92,1.376 -0.92,2.178 0,0.802 0.313,1.545 0.887,2.128 0.583,0.591 1.334,0.912 2.145,0.912 0.793,0 1.562,-0.321 2.161,-0.903 0.574,-0.557 0.887,-1.3 0.887,-2.136 0,-0.811 -0.321,-1.57 -0.878,-2.136 C 66.507,1.318 65.747,1.006 64.92,1.006 Z m 2.643,3.065 c 0,0.701 -0.271,1.351 -0.768,1.832 -0.524,0.507 -1.174,0.777 -1.892,0.777 -0.675,0 -1.342,-0.278 -1.84,-0.785 -0.498,-0.507 -0.777,-1.157 -0.777,-1.849 0,-0.692 0.287,-1.368 0.802,-1.891 0.481,-0.49 1.131,-0.751 1.84,-0.751 0.726,0 1.376,0.271 1.883,0.785 0.49,0.489 0.752,1.147 0.752,1.882 z M 65.004,2.264 h -1.3 v 3.445 h 0.65 V 4.24 h 0.642 l 0.701,1.469 h 0.726 L 65.654,4.139 C 66.152,4.037 66.439,3.7 66.439,3.21 c 0,-0.625 -0.472,-0.946 -1.435,-0.946 z m -0.118,0.422 c 0.608,0 0.886,0.169 0.886,0.591 0,0.405 -0.278,0.549 -0.87,0.549 h -0.549 v -1.14 z" />
      <path
         id="path21"
         style="fill:#ffffff"
         d="m 59.807,0.825 0.676,4.107 -2.391,4.575 c 0,0 -0.918,-1.941 -2.443,-3.015 C 54.364,5.587 53.527,5.39 52.218,5.66 c -1.681,0.347 -3.587,2.357 -4.419,4.835 -0.995,2.965 -1.005,4.4 -1.04,5.718 -0.056,2.113 0.277,3.362 0.277,3.362 0,0 -1.452,-2.686 -1.438,-6.62 0.009,-2.808 0.451,-5.354 1.75,-7.867 1.143,-2.209 2.842,-3.535 4.35,-3.691 1.559,-0.161 2.791,0.59 3.743,1.403 1,0.854 2.01,2.721 2.01,2.721 z" />
      <path
         id="path23"
         style="fill:#ffffff"
         d="m 60.102,24.063 c 0,0 -1.057,1.889 -1.715,2.617 -0.659,0.728 -1.837,2.01 -3.292,2.651 -1.455,0.641 -2.218,0.762 -3.656,0.624 -1.437,-0.138 -2.772,-0.97 -3.24,-1.317 -0.468,-0.347 -1.664,-1.369 -2.34,-2.322 -0.676,-0.953 -1.733,-2.859 -1.733,-2.859 0,0 0.589,1.91 0.958,2.721 0.212,0.467 0.864,1.894 1.789,3.136 0.863,1.159 2.539,3.154 5.086,3.604 2.547,0.451 4.297,-0.693 4.73,-0.97 0.433,-0.277 1.346,-1.042 1.924,-1.66 0.603,-0.645 1.174,-1.468 1.49,-1.962 0.231,-0.36 0.607,-1.092 0.607,-1.092 z" />
    </svg>
  </g>
  <g
     aria-label="2022"
     id="text1506"
     style="font-weight:900;font-size:21.3333px;font-family:Lato;-inkscape-font-specification:'Lato, Heavy';letter-spacing:0px;word-spacing:0px;fill:#aa222b;stroke-width:1px">
    <path
       d="m 6.4139537,104.03319 q 1.1519981,0 2.06933,0.34133 0.9279986,0.33067 1.5786643,0.928 0.650666,0.59733 0.991998,1.42933 0.352,0.82133 0.352,1.81333 0,0.85333 -0.245333,1.57866 -0.234666,0.72534 -0.650666,1.38667 -0.415999,0.65066 -0.9706649,1.26933 -0.5439992,0.608 -1.1626649,1.23733 l -3.0399952,3.11466 q 0.5866658,-0.17066 1.1519982,-0.26666 0.5759991,-0.10667 1.0773316,-0.10667 h 2.9013292 q 0.533332,0 0.842665,0.29867 0.309333,0.288 0.309333,0.768 v 1.91999 H 0.69662936 v -1.06666 q 0,-0.30933 0.1279998,-0.66133 0.1279998,-0.352 0.44799934,-0.64 l 4.4799929,-4.512 q 0.5759991,-0.576 1.0026651,-1.09866 0.426666,-0.52267 0.7039988,-1.024 0.2773329,-0.512 0.4159994,-1.01333 0.1386664,-0.512 0.1386664,-1.07733 0,-0.928 -0.4479993,-1.41867 -0.4373326,-0.50133 -1.3439978,-0.50133 -0.7359989,0 -1.2479981,0.39467 -0.5013325,0.384 -0.6933322,0.95999 -0.2239996,0.58667 -0.5866657,0.77867 -0.3626661,0.192 -1.0346651,0.0853 l -1.74933054,-0.30933 q 0.17066644,-1.16266 0.65066564,-2.02666 0.4906659,-0.864 1.2053314,-1.44 0.7253322,-0.576 1.6533307,-0.85333 0.9279986,-0.288 1.9946636,-0.288 z"
       id="path27" />
    <path
       d="m 24.37659,111.96918 q 0,2.03733 -0.437332,3.53066 -0.437333,1.49333 -1.215999,2.47466 -0.767998,0.98133 -1.834663,1.46133 -1.055999,0.48 -2.29333,0.48 -1.237331,0 -2.29333,-0.48 -1.045331,-0.48 -1.81333,-1.46133 -0.767999,-0.98133 -1.205332,-2.47466 -0.426666,-1.49333 -0.426666,-3.53066 0,-2.03733 0.426666,-3.53067 0.437333,-1.49333 1.205332,-2.47466 0.767999,-0.98133 1.81333,-1.45066 1.055999,-0.48 2.29333,-0.48 1.237331,0 2.29333,0.48 1.066665,0.46933 1.834663,1.45066 0.778666,0.98133 1.215999,2.47466 0.437332,1.49334 0.437332,3.53067 z m -3.413328,0 q 0,-1.61067 -0.202666,-2.63467 -0.202666,-1.03466 -0.543999,-1.62133 -0.330666,-0.58666 -0.757332,-0.8 -0.426666,-0.224 -0.863999,-0.224 -0.437333,0 -0.863999,0.224 -0.415999,0.21334 -0.746665,0.8 -0.32,0.58667 -0.522666,1.62133 -0.192,1.024 -0.192,2.63467 0,1.62133 0.192,2.64532 0.202666,1.024 0.522666,1.62134 0.330666,0.58666 0.746665,0.81066 0.426666,0.21333 0.863999,0.21333 0.437333,0 0.863999,-0.21333 0.426666,-0.224 0.757332,-0.81066 0.341333,-0.59734 0.543999,-1.62134 0.202666,-1.02399 0.202666,-2.64532 z"
       id="path29" />
    <path
       d="m 31.160578,104.03319 q 1.151998,0 2.06933,0.34133 0.927998,0.33067 1.578664,0.928 0.650666,0.59733 0.991998,1.42933 0.352,0.82133 0.352,1.81333 0,0.85333 -0.245333,1.57866 -0.234666,0.72534 -0.650666,1.38667 -0.415999,0.65066 -0.970665,1.26933 -0.543999,0.608 -1.162665,1.23733 l -3.039995,3.11466 q 0.586666,-0.17066 1.151998,-0.26666 0.575999,-0.10667 1.077332,-0.10667 h 2.901329 q 0.533332,0 0.842665,0.29867 0.309333,0.288 0.309333,0.768 v 1.91999 h -10.92265 v -1.06666 q 0,-0.30933 0.128,-0.66133 0.128,-0.352 0.447999,-0.64 l 4.479993,-4.512 q 0.575999,-0.576 1.002665,-1.09866 0.426666,-0.52267 0.703999,-1.024 0.277333,-0.512 0.416,-1.01333 0.138666,-0.512 0.138666,-1.07733 0,-0.928 -0.447999,-1.41867 -0.437333,-0.50133 -1.343998,-0.50133 -0.735999,0 -1.247998,0.39467 -0.501333,0.384 -0.693332,0.95999 -0.224,0.58667 -0.586666,0.77867 -0.362666,0.192 -1.034665,0.0853 l -1.749331,-0.30933 q 0.170667,-1.16266 0.650666,-2.02666 0.490666,-0.864 1.205331,-1.44 0.725333,-0.576 1.653331,-0.85333 0.927999,-0.288 1.994664,-0.288 z"
       id="path31" />
    <path
       d="m 43.533888,104.03319 q 1.151998,0 2.06933,0.34133 0.927998,0.33067 1.578664,0.928 0.650666,0.59733 0.991998,1.42933 0.352,0.82133 0.352,1.81333 0,0.85333 -0.245333,1.57866 -0.234666,0.72534 -0.650666,1.38667 -0.415999,0.65066 -0.970665,1.26933 -0.543999,0.608 -1.162665,1.23733 l -3.039995,3.11466 q 0.586666,-0.17066 1.151998,-0.26666 0.575999,-0.10667 1.077332,-0.10667 h 2.901329 q 0.533332,0 0.842665,0.29867 0.309333,0.288 0.309333,0.768 v 1.91999 h -10.92265 v -1.06666 q 0,-0.30933 0.128,-0.66133 0.128,-0.352 0.448,-0.64 l 4.479992,-4.512 q 0.576,-0.576 1.002666,-1.09866 0.426666,-0.52267 0.703998,-1.024 0.277333,-0.512 0.416,-1.01333 0.138666,-0.512 0.138666,-1.07733 0,-0.928 -0.447999,-1.41867 -0.437333,-0.50133 -1.343998,-0.50133 -0.735999,0 -1.247998,0.39467 -0.501333,0.384 -0.693332,0.95999 -0.224,0.58667 -0.586666,0.77867 -0.362666,0.192 -1.034665,0.0853 l -1.749331,-0.30933 q 0.170667,-1.16266 0.650666,-2.02666 0.490666,-0.864 1.205332,-1.44 0.725332,-0.576 1.65333,-0.85333 0.927999,-0.288 1.994664,-0.288 z"
       id="path33" />
  </g>
</svg>
