<svg id="Layer_1" data-name="Layer 1" xmlns="http://www.w3.org/2000/svg" viewBox="0 0 160.25 107.08"><defs><style>.cls-1{fill:#007ee5;}</style></defs><title>w3c</title><g id="Foreground"><rect class="cls-1" width="159.86" height="2.46"/><rect class="cls-1" y="104.62" width="159.86" height="2.46"/><path class="cls-1" d="M64.83,65.6l12.85,43.55L90.53,65.6H125.3v4.28l-13.12,22.5a18.2,18.2,0,0,1,10.42,8,25.9,25.9,0,0,1,3.53,13.7q0,9.72-5.17,16.34a16.79,16.79,0,0,1-23.53,3.2h0l-0.63-.5A23.13,23.13,0,0,1,90,122.54l7.24-3a16.51,16.51,0,0,0,4.2,6.43,8.89,8.89,0,0,0,6.14,2.35q3.72,0,6.28-4.16a18.64,18.64,0,0,0,2.56-10q0-6.43-2.74-10-3.21-4.16-10-4.16h-3.53V95.73l12.37-21.42h-15l-0.85,1.45-18.2,61.29H77.59L64.3,92.7,51.09,137.17H50.21L29,65.6H38.3l12.79,43.58,8.66-29.33L55.47,65.63h9.27Z" transform="translate(-20 -46)"/><path class="cls-1" d="M173.39,65.6a6.43,6.43,0,0,0-4.7,1.92,6.91,6.91,0,0,0-2,4.84,6.83,6.83,0,0,0,6.75,6.77,6.91,6.91,0,0,0,4.81-2,6.49,6.49,0,0,0,2-4.75,6.76,6.76,0,0,0-1.95-4.75A6.67,6.67,0,0,0,173.39,65.6Zm5.91,6.83a5.6,5.6,0,0,1-1.74,4.11,5.93,5.93,0,0,1-4.26,1.69,5.76,5.76,0,0,1-4-1.75,5.84,5.84,0,0,1-1.72-4.11,6,6,0,0,1,1.72-4.21,5.65,5.65,0,0,1,4.11-1.62,5.84,5.84,0,0,1,5.89,5.77v0.12h0Zm-5.69-4h-2.89V76.1h1.4V72.77h1.42L175.1,76h1.62L175,72.54a2,2,0,0,0,1.75-2.07c0-1.36-1-2.07-3.16-2.07h0Zm-0.27.94c1.35,0,2,.37,2,1.32s-0.62,1.22-1.94,1.22h-1.3V69.34h1.2Z" transform="translate(-20 -46)"/></g><g id="Calque_1" data-name="Calque 1"><path class="cls-1" d="M157.92,67.48l1.4,8.53-5,9.53a18.28,18.28,0,0,0-5.07-6.26c-2.67-1.88-4.41-2.29-7.13-1.73-3.49.72-7.45,4.9-9.18,10a34.35,34.35,0,0,0-2.16,11.88,27,27,0,0,0,.58,7,31.18,31.18,0,0,1-3-13.75A34.5,34.5,0,0,1,132,76.34c2.37-4.59,5.9-7.34,9-7.67s5.8,1.23,7.78,2.92a24.75,24.75,0,0,1,4.18,5.65Z" transform="translate(-20 -46)"/><path class="cls-1" d="M158.53,115.75a42.44,42.44,0,0,1-3.56,5.44c-1.37,1.51-3.82,4.18-6.84,5.51a12.74,12.74,0,0,1-7.59,1.3,14.94,14.94,0,0,1-6.73-2.74,26.13,26.13,0,0,1-4.86-4.82c-1.4-2-3.6-5.94-3.6-5.94s1.22,4,2,5.65a36.7,36.7,0,0,0,3.72,6.51c1.79,2.41,5.27,6.55,10.57,7.49a13.43,13.43,0,0,0,9.83-2,27.13,27.13,0,0,0,4-3.45,30.43,30.43,0,0,0,3.1-4.08c0.48-.75,1.26-2.27,1.26-2.27Z" transform="translate(-20 -46)"/></g></svg>