<?xml version="1.0" encoding="UTF-8" standalone="no"?>
<!-- Created with Inkscape (http://www.inkscape.org/) -->

<svg
   xmlns:dc="http://purl.org/dc/elements/1.1/"
   xmlns:cc="http://creativecommons.org/ns#"
   xmlns:rdf="http://www.w3.org/1999/02/22-rdf-syntax-ns#"
   xmlns:svg="http://www.w3.org/2000/svg"
   xmlns="http://www.w3.org/2000/svg"
   xmlns:xlink="http://www.w3.org/1999/xlink"
   xmlns:sodipodi="http://sodipodi.sourceforge.net/DTD/sodipodi-0.dtd"
   xmlns:inkscape="http://www.inkscape.org/namespaces/inkscape"
   version="1.2"
   width="3011.811"
   height="7086.6138"
   id="svg2"
   inkscape:version="0.48.0 r9654"
   sodipodi:docname="TPAC-2016-Poster-Template.svg">
  <sodipodi:namedview
     pagecolor="#ffffff"
     bordercolor="#666666"
     borderopacity="1"
     objecttolerance="10"
     gridtolerance="10"
     guidetolerance="10"
     inkscape:pageopacity="0"
     inkscape:pageshadow="2"
     inkscape:window-width="2560"
     inkscape:window-height="1018"
     id="namedview92"
     showgrid="false"
     inkscape:zoom="0.24"
     inkscape:cx="1447.4262"
     inkscape:cy="846.29184"
     inkscape:window-x="1358"
     inkscape:window-y="-8"
     inkscape:window-maximized="1"
     inkscape:current-layer="layer4"
     units="cm" />
  <defs
     id="defs4">
    <linearGradient
       id="linearGradient5383">
      <stop
         id="stop5385"
         style="stop-color:#4b7b7c;stop-opacity:1"
         offset="0" />
      <stop
         id="stop5514"
         style="stop-color:#4b7b7c;stop-opacity:0.99215686"
         offset="0.0078125" />
      <stop
         id="stop5512"
         style="stop-color:#4b7b7c;stop-opacity:0.98431373"
         offset="0.015625" />
      <stop
         id="stop5510"
         style="stop-color:#4b7b7c;stop-opacity:0.96862745"
         offset="0.03125" />
      <stop
         id="stop5508"
         style="stop-color:#4b7b7c;stop-opacity:0.93725491"
         offset="0.0625" />
      <stop
         id="stop5506"
         style="stop-color:#4b7b7c;stop-opacity:0.87450981"
         offset="0.125" />
      <stop
         id="stop5504"
         style="stop-color:#4b7b7c;stop-opacity:0.74901962"
         offset="0.25" />
      <stop
         id="stop5502"
         style="stop-color:#4b7b7c;stop-opacity:0.49803922"
         offset="0.5" />
      <stop
         id="stop5387"
         style="stop-color:#4b7b7c;stop-opacity:0"
         offset="1" />
    </linearGradient>
    <linearGradient
       id="linearGradient5298">
      <stop
         id="stop5300"
         style="stop-color:#dcdcdc;stop-opacity:0.3888889"
         offset="0" />
      <stop
         id="stop5302"
         style="stop-color:#e6e6e6;stop-opacity:0"
         offset="1" />
    </linearGradient>
    <linearGradient
       id="linearGradient5286">
      <stop
         id="stop5288"
         style="stop-color:#e6e6e6;stop-opacity:1"
         offset="0" />
    </linearGradient>
    <linearGradient
       id="linearGradient3828">
      <stop
         id="stop3830"
         style="stop-color:#dcdcdc;stop-opacity:1"
         offset="0" />
      <stop
         id="stop3832"
         style="stop-color:#0000ff;stop-opacity:0"
         offset="1" />
    </linearGradient>
    <linearGradient
       x1="-194.01172"
       y1="4792.7188"
       x2="4462.2695"
       y2="4792.7188"
       id="linearGradient5304"
       xlink:href="#linearGradient5298"
       gradientUnits="userSpaceOnUse"
       gradientTransform="translate(-50,0)" />
    <linearGradient
       x1="171.48375"
       y1="6955.3403"
       x2="3758.3523"
       y2="6955.3403"
       id="linearGradient5393"
       xlink:href="#linearGradient5383"
       gradientUnits="userSpaceOnUse"
       gradientTransform="matrix(1.0324857,0,0,1,-5.5707605,0)"
       spreadMethod="pad" />
  </defs>
  <metadata
     id="metadata7">
    <rdf:RDF>
      <cc:Work
         rdf:about="">
        <dc:format>image/svg+xml</dc:format>
        <dc:type
           rdf:resource="http://purl.org/dc/dcmitype/StillImage" />
        <dc:title />
      </cc:Work>
    </rdf:RDF>
  </metadata>
  <g
     id="layer3"
     transform="matrix(0.76239691,0,0,0.76239691,-57.977938,-83.092684)">
    <rect
       width="4656.2812"
       height="10088.609"
       x="-244.01172"
       y="-251.58603"
       id="rect5296"
       style="fill:url(#linearGradient5304);fill-opacity:1;fill-rule:evenodd;stroke-width:0.64700001;stroke-miterlimit:4;stroke-dasharray:none" />
  </g>
  <g
     id="layer5"
     transform="matrix(0.76557365,0,0,0.76239691,-58.522697,-83.092684)">
    <rect
       width="3703.3901"
       height="2543.6758"
       x="171.48375"
       y="5683.5024"
       id="rect5355"
       style="fill:url(#linearGradient5393);fill-opacity:1;fill-rule:evenodd;stroke-width:0.64700001;stroke-miterlimit:4;stroke-dasharray:none" />
    <text
       x="300"
       y="5949"
       id="text5395"
       xml:space="preserve"
       style="font-size:200px;font-style:normal;font-weight:normal;line-height:125%;letter-spacing:0px;word-spacing:0px;fill:#ffffff;fill-opacity:1;stroke:none;font-family:Arial"
       sodipodi:linespacing="125%"><tspan
         x="300"
         y="5949"
         id="tspan5397"
         style="font-size:200px;font-weight:bold;fill:#ffffff;-inkscape-font-specification:Arial Bold;font-family:Arial;font-style:normal;font-stretch:normal;font-variant:normal">Header #1</tspan></text>
    <text
       x="298.84644"
       y="6319.1987"
       id="text5395-2"
       xml:space="preserve"
       style="font-size:144px;font-style:normal;font-weight:normal;line-height:125%;letter-spacing:0px;word-spacing:0px;fill:#000000;fill-opacity:1;stroke:none;font-family:Arial"
       sodipodi:linespacing="125%"><tspan
         x="298.84644"
         y="6319.1987"
         id="tspan5397-3"
         style="font-size:175px;font-weight:bold;fill:#ffffff;-inkscape-font-specification:Arial Bold;font-family:Arial;font-style:normal;font-stretch:normal;font-variant:normal">Header #2</tspan></text>
    <rect
       width="3250"
       height="13.333332"
       x="275"
       y="6449"
       id="rect5420"
       style="fill:#ffffff;fill-opacity:0.74509804;fill-rule:evenodd;stroke-width:0.64700001;stroke-miterlimit:4;stroke-dasharray:none" />
    <text
       x="600"
       y="6857.3335"
       id="text5443"
       xml:space="preserve"
       style="font-size:144px;font-style:normal;font-weight:normal;line-height:125%;letter-spacing:0px;word-spacing:0px;fill:#ffffff;fill-opacity:1;stroke:none;font-family:Arial"
       sodipodi:linespacing="125%"><tspan
         sodipodi:role="line"
         id="tspan3088"
         x="600"
         y="6857.3335">Subtitle #1</tspan><tspan
         sodipodi:role="line"
         id="tspan3090"
         x="600"
         y="7037.3335">• AAA</tspan><tspan
         sodipodi:role="line"
         id="tspan3092"
         x="600"
         y="7217.3335">• BBB</tspan><tspan
         sodipodi:role="line"
         id="tspan3094"
         x="600"
         y="7397.3335">• CCC</tspan><tspan
         sodipodi:role="line"
         id="tspan3096"
         x="600"
         y="7577.3335">• DDD</tspan><tspan
         sodipodi:role="line"
         id="tspan3098"
         x="600"
         y="7757.3335">• EEE</tspan><tspan
         sodipodi:role="line"
         x="600"
         y="7937.3335"
         id="tspan3091">• FFF</tspan></text>
    <text
       x="2219.7813"
       y="6853.0845"
       id="text5443-2"
       xml:space="preserve"
       style="font-size:144px;font-style:normal;font-weight:normal;line-height:125%;letter-spacing:0px;word-spacing:0px;fill:#ffffff;fill-opacity:1;stroke:none;font-family:Arial"
       sodipodi:linespacing="125%"><tspan
         sodipodi:role="line"
         id="tspan3074"
         x="2219.7813"
         y="6853.0845">Subtitle #1</tspan><tspan
         sodipodi:role="line"
         id="tspan3076"
         x="2219.7813"
         y="7033.0845">• AAA</tspan><tspan
         sodipodi:role="line"
         id="tspan3078"
         x="2219.7813"
         y="7213.0845">• BBB</tspan><tspan
         sodipodi:role="line"
         id="tspan3080"
         x="2219.7813"
         y="7393.0845">• CCC</tspan><tspan
         sodipodi:role="line"
         id="tspan3082"
         x="2219.7813"
         y="7573.0845">• DDD</tspan><tspan
         sodipodi:role="line"
         id="tspan3084"
         x="2219.7813"
         y="7753.0845">• EEE</tspan><tspan
         sodipodi:role="line"
         x="2219.7813"
         y="7933.0845"
         id="tspan3115">• FFF</tspan></text>
  </g>
  <g
     transform="matrix(0.76239691,0,0,0.76239691,-57.977938,6318.4797)"
     id="layer1">
    <g
       transform="matrix(15.397638,0,0,15.397638,572.77372,-8235.8085)"
       id="g3032">
      <path
         d="m 161.3,34.9 h -23.4 c -5.4,0 -9.7,4.4 -9.7,9.7 v 7.7 h -12 C 114.3,42.4 105.6,34.9 95.1,34.9 84.7,34.9 75.9,42.4 74,52.3 H 60.1 l 3.8,-6.6 c 1.3,-2.3 1.3,-5 0,-7.2 -1.3,-2.3 -3.6,-3.6 -6.3,-3.6 H 24.8 c -2.6,0 -4.9,1.3 -6.3,3.6 -1.3,2.3 -1.3,5 0,7.2 l 16.4,28.5 c 1.3,2.3 3.6,3.6 6.3,3.6 h 0 c 2.6,0 4.9,-1.3 6.3,-3.6 l 8,-13.8 H 74 c 1.9,9.9 10.6,17.4 21.1,17.4 10.4,0 19.2,-7.5 21.1,-17.4 h 12 v 7.7 c 0,5.4 4.4,9.7 9.7,9.7 h 23.4 c 5.4,0 9.7,-4.4 9.7,-9.7 V 44.7 c 0,-5.4 -4.4,-9.8 -9.7,-9.8 z"
         id="path2986"
         style="fill:#4a7b7c"
         inkscape:connector-curvature="0" />
      <g
         id="g2988">
        <path
           d="m 70.5,23 c -0.2,0.5 -0.6,0.8 -1.1,0.8 -0.5,0 -1,-0.3 -1.1,-0.8 l -2,-7.1 -2,7.1 c -0.1,0.5 -0.6,0.8 -1.1,0.8 -0.5,0 -1,-0.4 -1.1,-0.8 -0.4,-1.2 -3.6,-10.7 -3.6,-11.3 0,-0.7 0.5,-1.2 1.2,-1.2 0.5,0 1,0.4 1.2,0.8 l 2.4,7.3 2.1,-7.3 c 0.1,-0.5 0.6,-0.8 1.1,-0.8 0.5,0 1,0.4 1.1,0.8 l 2.1,7.3 2.3,-7.3 c 0.2,-0.5 0.6,-0.8 1.1,-0.8 0.7,0 1.2,0.5 1.2,1.2 -0.2,0.6 -3.4,10.1 -3.8,11.3 z"
           id="path2990"
           style="fill:#4a7b7c"
           inkscape:connector-curvature="0" />
        <path
           d="m 84.7,23.7 c -7.4,0 -7.4,0 -7.4,0 -0.7,0 -1.3,-0.6 -1.3,-1.3 V 12 c 0,-0.7 0.6,-1.3 1.3,-1.3 h 7.1 c 0.7,0 1.2,0.5 1.2,1.2 0,0.7 -0.6,1.2 -1.2,1.2 h -5.8 v 2.8 h 3.2 c 0.7,0 1.2,0.5 1.2,1.2 0,0.7 -0.5,1.2 -1.2,1.2 h -3.2 v 2.9 h 6.1 c 0.7,0 1.2,0.6 1.2,1.2 0.1,0.8 -0.5,1.3 -1.2,1.3 z"
           id="path2992"
           style="fill:#4a7b7c"
           inkscape:connector-curvature="0" />
        <path
           d="m 94.1,23.7 h -4.6 c -0.7,0 -1.3,-0.6 -1.3,-1.3 V 12 c 0,-0.7 0.6,-1.3 1.3,-1.3 H 94 c 2.7,0 4.2,1.3 4.2,3.2 0,1.3 -0.7,2.4 -1.7,2.9 1.6,0.5 2.4,1.8 2.4,3.3 0,2 -1.8,3.6 -4.8,3.6 z m 0.1,-10.6 h -3.4 v 2.6 h 3.4 c 0.9,0 1.4,-0.6 1.4,-1.3 0,-0.7 -0.4,-1.3 -1.4,-1.3 z m 0.3,4.9 h -3.7 v 3.3 h 3.7 c 1.3,0 1.8,-0.9 1.8,-1.7 0,-0.7 -0.5,-1.6 -1.8,-1.6 z"
           id="path2994"
           style="fill:#4a7b7c"
           inkscape:connector-curvature="0" />
        <path
           d="m 112.9,23.9 c -3.7,0 -6.7,-3 -6.7,-6.7 0,-3.7 2.9,-6.7 6.7,-6.7 3.8,0 6.6,3 6.6,6.7 0,3.7 -2.8,6.7 -6.6,6.7 z m 0,-11 c -2.4,0 -4.1,1.9 -4.1,4.3 0,2.4 1.6,4.3 4.1,4.3 2.5,0 4.1,-1.9 4.1,-4.3 0,-2.4 -1.6,-4.3 -4.1,-4.3 z"
           id="path2996"
           style="fill:#4a7b7c"
           inkscape:connector-curvature="0" />
        <path
           d="m 130.6,13.1 h -5.9 v 2.8 h 3.4 c 0.7,0 1.2,0.5 1.2,1.2 0,0.7 -0.5,1.2 -1.2,1.2 h -3.4 v 4.2 c 0,0.7 -0.6,1.3 -1.3,1.3 -0.7,0 -1.3,-0.6 -1.3,-1.3 V 12 c 0,-0.7 0.6,-1.3 1.3,-1.3 h 7.2 c 0.7,0 1.2,0.5 1.2,1.2 0,0.7 -0.5,1.2 -1.2,1.2 z"
           id="path2998"
           style="fill:#4a7b7c"
           inkscape:connector-curvature="0" />
      </g>
      <g
         id="g3000">
        <path
           d="m 69,91.4 h -3.6 v 9.4 c 0,0.7 -0.6,1.3 -1.3,1.3 -0.7,0 -1.3,-0.6 -1.3,-1.3 V 91.4 H 59.2 C 58.5,91.4 58,90.9 58,90.2 58,89.5 58.5,89 59.2,89 H 69 c 0.7,0 1.2,0.5 1.2,1.2 0,0.7 -0.5,1.2 -1.2,1.2 z"
           id="path3002"
           style="fill:#4a7b7c"
           inkscape:connector-curvature="0" />
        <path
           d="m 81.7,102.1 c -0.7,0 -1.3,-0.6 -1.3,-1.3 v -4.3 h -5.9 v 4.3 c 0,0.7 -0.6,1.3 -1.3,1.3 -0.7,0 -1.3,-0.6 -1.3,-1.3 V 90.1 c 0,-0.7 0.6,-1.3 1.3,-1.3 0.7,0 1.3,0.6 1.3,1.3 V 94 h 5.9 v -3.9 c 0,-0.7 0.6,-1.3 1.3,-1.3 0.7,0 1.3,0.6 1.3,1.3 v 10.7 c 0,0.7 -0.6,1.3 -1.3,1.3 z"
           id="path3004"
           style="fill:#4a7b7c"
           inkscape:connector-curvature="0" />
        <path
           d="m 87.8,102.1 c -0.7,0 -1.3,-0.6 -1.3,-1.3 V 90.1 c 0,-0.7 0.6,-1.3 1.3,-1.3 0.7,0 1.3,0.6 1.3,1.3 v 10.7 c 0,0.7 -0.6,1.3 -1.3,1.3 z"
           id="path3006"
           style="fill:#4a7b7c"
           inkscape:connector-curvature="0" />
        <path
           d="m 102.2,102.1 c -0.4,0 -0.7,-0.2 -0.9,-0.4 L 95,93.4 v 7.5 c 0,0.7 -0.6,1.2 -1.2,1.2 -0.7,0 -1.2,-0.5 -1.2,-1.2 V 90 c 0,-0.6 0.5,-1.2 1.3,-1.2 0.3,0 0.7,0.2 0.9,0.4 l 6.4,8.3 V 90 c 0,-0.7 0.5,-1.2 1.2,-1.2 0.7,0 1.2,0.6 1.2,1.2 v 10.9 c -0.1,0.7 -0.7,1.2 -1.4,1.2 z"
           id="path3008"
           style="fill:#4a7b7c"
           inkscape:connector-curvature="0" />
        <path
           d="m 117.9,99.9 c -1.2,1.5 -3.4,2.3 -5.3,2.3 -3.7,0 -6.7,-3 -6.7,-6.7 0,-3.7 2.9,-6.7 6.7,-6.7 1.6,0 3.2,0.4 4.4,1.5 0.3,0.3 0.4,0.5 0.4,0.9 0,0.7 -0.5,1.2 -1.2,1.2 -0.9,0 -1.5,-1.2 -3.6,-1.2 -2.5,0 -4.1,2 -4.1,4.3 0,2.4 1.6,4.3 4.1,4.3 1,0 2.3,-0.3 3,-1 l 0,-1.8 h -2.4 c -0.6,0 -1.2,-0.5 -1.2,-1.2 0,-0.6 0.5,-1.2 1.2,-1.2 h 3.7 c 0.7,0 1.3,0.6 1.3,1.3 v 3.2 c 0,0.4 -0.1,0.6 -0.3,0.8 z"
           id="path3010"
           style="fill:#4a7b7c"
           inkscape:connector-curvature="0" />
        <path
           d="m 125.7,102.2 c -1.3,0 -5.6,-0.7 -5.6,-2.4 0,-0.6 0.5,-1.2 1.2,-1.2 0.2,0 0.4,0.1 0.6,0.2 1.3,0.7 2.4,1.1 3.9,1.1 0.9,0 2.8,-0.2 2.8,-1.4 0,-2.4 -7.8,-1.1 -7.8,-6.1 0,-2.9 2.9,-3.6 5.2,-3.6 1.2,0 3.2,0.3 4.3,0.8 0.4,0.2 0.8,0.6 0.8,1.1 0,0.7 -0.6,1.2 -1.2,1.2 -0.2,0 -0.3,0 -0.5,-0.1 -1.1,-0.4 -2.1,-0.6 -3.3,-0.6 -0.8,0 -2.7,0 -2.7,1.2 0,1.2 3.1,1.9 4,2.2 2,0.6 3.8,1.4 3.8,3.7 -0.1,3 -3,3.9 -5.5,3.9 z"
           id="path3012"
           style="fill:#4a7b7c"
           inkscape:connector-curvature="0" />
      </g>
      <polygon
         points="56.5,42.8 46.5,42.8 35.9,42.8 25.9,42.8 36.2,60.7 41.2,52 46.2,60.7 "
         id="polygon3014"
         style="fill:#ffffff" />
      <path
         d="m 41.2,46.5 c 2.1,0 3.8,1.1 4.8,2.8 l 1.6,-0.9 c -1.3,-2.2 -3.7,-3.7 -6.4,-3.7 -2.7,0 -5.1,1.5 -6.4,3.7 l 1.6,0.9 c 0.9,-1.7 2.7,-2.8 4.8,-2.8 z"
         id="path3016"
         style="fill:#4a7b7c"
         inkscape:connector-curvature="0" />
      <path
         d="m 41.2,50.2 c 0.7,0 1.3,0.4 1.6,0.9 l 1.6,-0.9 c -0.6,-1.1 -1.8,-1.9 -3.2,-1.9 -1.4,0 -2.5,0.8 -3.2,1.9 l 1.6,0.9 c 0.3,-0.5 0.9,-0.9 1.6,-0.9 z"
         id="path3018"
         style="fill:#4a7b7c"
         inkscape:connector-curvature="0" />
      <path
         d="m 107.8,61.2 0,0 -2.3,-0.9 c 0.4,-1.2 0.7,-2.5 0.7,-3.8 h 0 2.5 c 0,-0.6 -0.1,-1.1 -0.1,-1.7 0,-0.2 0,-0.4 -0.1,-0.7 -0.1,-0.8 -0.4,-1.6 -0.6,-2.3 l -2,0.7 -0.3,0.1 c -0.3,-0.7 -0.6,-1.4 -1,-2.1 -0.3,-0.4 -0.6,-0.9 -0.9,-1.3 l 1.9,-1.6 c -0.5,-0.6 -1.1,-1.2 -1.7,-1.7 -0.6,-0.5 -1.3,-1 -1.9,-1.4 l -1.2,2.2 c -0.5,-0.3 -1,-0.5 -1.5,-0.7 -0.7,-0.3 -1.4,-0.5 -2.1,-0.6 l 0.4,-2.5 c -1,0.2 -1.8,0.1 -2.6,0.1 -0.2,0 -0.4,0 -0.6,0 -0.6,0 -1.2,0.1 -1.7,0.2 l 0.4,2.5 0,0 c -1.3,0.2 -2.5,0.7 -3.6,1.3 l -1.2,-2.2 c -1.4,0.8 -2.6,1.8 -3.6,3 l 1.9,1.6 c -0.8,1 -1.5,2.1 -1.9,3.3 l -2.3,-0.9 c 0,0 0,0 0,0 l 0,0 c -0.2,0.7 -0.4,1.4 -0.6,2.1 0,0.1 0,0.2 -0.1,0.2 0,0.1 0,0.1 0,0.2 -0.1,0.7 -0.2,1.4 -0.2,2.2 h 0 c 0,0 0,0 0,0 l 2.5,0 c 0,1.3 0.2,2.6 0.7,3.8 l -2.3,0.9 c 0.5,1.5 1.3,2.9 2.4,4.1 l 1.9,-1.6 c 0.8,1 1.8,1.8 2.9,2.5 l -1.2,2.2 c 0.7,0.4 1.4,0.7 2.1,1 0.8,0.3 1.5,0.5 2.3,0.6 l 0.4,-2.5 c 1.3,0.2 2.6,0.2 3.9,0 l 0.4,2.5 h 0 l 0,0 c 1.2,-0.2 2.3,-0.6 3.3,-1.1 0,0 0,0 0,0 0.1,0 0.2,-0.1 0.2,-0.1 0.3,-0.1 0.6,-0.3 0.8,-0.4 l 0,0 0,0 -1.2,-2.2 c 0.6,-0.3 1.1,-0.7 1.6,-1.1 0.5,-0.4 1,-0.9 1.4,-1.4 l 1.9,1.6 c 0.2,-0.2 0.3,-0.4 0.5,-0.6 0.7,-1.1 1.4,-2.2 1.8,-3.5 l 0,0 z"
         id="path3020"
         style="fill:#ffffff"
         inkscape:connector-curvature="0" />
      <polygon
         points="139.5,59.2 144.8,62.3 139.5,65.3 "
         id="polygon3022"
         style="fill:#ffffff" />
      <polygon
         points="148.3,57.1 148.3,58.9 145.8,58.9 145.8,61.4 148.3,61.4 148.3,63.2 145.8,63.2 145.8,65.7 148.2,65.7 148.2,67.5 145.8,67.5 145.8,70 153.3,70 153.3,50.3 163.1,50.3 163.1,42.9 136,42.9 136,50.3 145.8,50.3 145.8,52.8 148.3,52.8 148.3,54.6 145.8,54.6 145.8,57.1 "
         id="polygon3024"
         style="fill:#ffffff" />
    </g>
  </g>
  <g
     id="layer2"
     transform="matrix(0.76239691,0,0,0.76239691,-57.977938,-83.092684)" />
  <g
     id="layer4"
     style="display:inline"
     transform="matrix(0.77038172,0,0,0.76239691,-59.347203,-81.092684)">
    <rect
       width="3683.4639"
       height="971.74127"
       x="171.48375"
       y="8320.0654"
       id="rect5307"
       style="fill:#ffffff;fill-opacity:0.74509804;fill-rule:evenodd;stroke-width:0.64700001;stroke-miterlimit:4;stroke-dasharray:none" />
    <g
       transform="matrix(6.6809127,0,0,6.6809127,2345.9023,8312.6882)"
       id="g5328">
      <path
         d="M 52.352,24.412 69.307,82.055 86.26,24.412 h 45.964 v 5.73 l -17.307,29.816 c 6.08,1.949 10.678,5.498 13.795,10.641 3.119,5.146 4.68,11.184 4.68,18.121 0,8.578 -2.283,15.787 -6.844,21.631 -4.561,5.844 -10.465,8.768 -17.713,8.768 -5.458,0 -10.211,-1.732 -14.262,-5.201 -4.054,-3.469 -7.054,-8.164 -9.002,-14.09 l 9.585,-3.975 c 1.404,3.586 3.256,6.412 5.556,8.475 2.299,2.066 5.008,3.1 8.125,3.1 3.271,0 6.041,-1.832 8.301,-5.494 2.262,-3.664 3.393,-8.066 3.393,-13.215 0,-5.691 -1.209,-10.096 -3.623,-13.213 -2.811,-3.662 -7.215,-5.496 -13.216,-5.496 H 99.018 V 64.399 L 115.385,36.102 H 95.63 l -1.124,1.914 -24.031,81.088 H 69.306 L 51.766,60.413 34.23,119.104 H 33.062 L 5.006,24.408 H 17.282 L 34.235,82.051 45.695,43.236 40.084,24.41 h 12.273 v -0.004 z"
         id="path5314"
         style="fill:#005a9c"
         inkscape:connector-curvature="0" />
      <path
         d="m 196.02,24.412 c -2.41,0 -4.574,0.869 -6.215,2.535 -1.74,1.768 -2.709,4.051 -2.709,6.412 0,2.361 0.922,4.549 2.611,6.266 1.717,1.74 3.928,2.686 6.314,2.686 2.334,0 4.6,-0.945 6.361,-2.658 1.689,-1.641 2.611,-3.828 2.611,-6.289 0,-2.387 -0.945,-4.623 -2.584,-6.289 -1.7,-1.745 -3.94,-2.663 -6.38,-2.663 z m 7.78,9.024 c 0,2.064 -0.799,3.979 -2.26,5.393 -1.543,1.494 -3.457,2.289 -5.57,2.289 -1.986,0 -3.949,-0.818 -5.418,-2.311 -1.465,-1.494 -2.287,-3.406 -2.287,-5.443 0,-2.039 0.846,-4.027 2.361,-5.566 1.416,-1.443 3.328,-2.211 5.416,-2.211 2.139,0 4.051,0.799 5.543,2.311 1.45,1.438 2.22,3.373 2.22,5.538 z m -7.53,-5.321 h -3.826 v 10.143 h 1.914 v -4.324 h 1.891 l 2.063,4.324 h 2.137 l -2.264,-4.621 c 1.465,-0.301 2.313,-1.293 2.313,-2.734 0.01,-1.84 -1.39,-2.788 -4.22,-2.788 z m -0.35,1.244 c 1.789,0 2.609,0.498 2.609,1.74 0,1.191 -0.82,1.617 -2.563,1.617 h -1.617 v -3.357 h 1.57 z"
         id="path5316"
         inkscape:connector-curvature="0" />
      <path
         d="m 180.97,23.881 1.988,12.09 -7.039,13.469 c 0,0 -2.701,-5.715 -7.191,-8.875 -3.781,-2.664 -6.246,-3.244 -10.1,-2.449 -4.949,1.021 -10.561,6.938 -13.01,14.234 -2.93,8.727 -2.959,12.953 -3.063,16.832 -0.164,6.223 0.816,9.896 0.816,9.896 0,0 -4.275,-7.906 -4.234,-19.486 0.027,-8.268 1.328,-15.764 5.152,-23.16 3.365,-6.504 8.367,-10.408 12.807,-10.867 4.59,-0.473 8.215,1.738 11.02,4.131 2.941,2.516 5.916,8.01 5.916,8.01 l 6.92,-13.825 z"
         id="path5318"
         inkscape:connector-curvature="0" />
      <path
         d="m 181.84,92.289 c 0,0 -3.111,5.563 -5.049,7.705 -1.939,2.145 -5.408,5.918 -9.691,7.807 -4.283,1.887 -6.529,2.24 -10.764,1.836 -4.229,-0.406 -8.16,-2.855 -9.537,-3.877 -1.377,-1.022 -4.898,-4.029 -6.889,-6.836 -1.992,-2.807 -5.102,-8.416 -5.102,-8.416 0,0 1.732,5.623 2.82,8.01 0.623,1.375 2.541,5.576 5.266,9.232 2.541,3.41 7.475,9.283 14.973,10.609 7.498,1.328 12.65,-2.041 13.926,-2.855 1.273,-0.814 3.961,-3.066 5.664,-4.889 1.775,-1.896 3.457,-4.32 4.385,-5.773 0.682,-1.063 1.789,-3.215 1.789,-3.215 l -1.79,-9.331 z"
         id="path5320"
         inkscape:connector-curvature="0" />
    </g>
    <flowRoot
       id="flowRoot3914"
       xml:space="preserve"
       style="font-size:40px;font-style:normal;font-weight:normal;text-align:center;line-height:125%;letter-spacing:0px;word-spacing:0px;text-anchor:middle;fill:#000000;fill-opacity:1;stroke:none;font-family:Arial"><flowRegion
         id="flowRegion3916"><rect
           width="159.86761"
           height="73.785057"
           x="-1598.6761"
           y="8243.8438"
           id="rect3918" /></flowRegion><flowPara
         id="flowPara3920" /></flowRoot>    <text
       x="235.63614"
       y="8431.4619"
       id="text5395-4"
       xml:space="preserve"
       style="font-size:196.95263672px;font-style:normal;font-weight:normal;line-height:125%;letter-spacing:0px;word-spacing:0px;fill:#000000;fill-opacity:1;stroke:none;font-family:Arial"
       sodipodi:linespacing="125%"
       transform="scale(0.98476316,1.0154726)"><tspan
         x="235.63614"
         y="8431.4619"
         id="tspan5397-39"
         style="font-size:167.40974426px;font-weight:bold;fill:#000000;fill-opacity:1;-inkscape-font-specification:Arial Bold">Web of Things at W3C</tspan><tspan
         x="235.63614"
         y="8640.7246"
         id="tspan3987"
         style="font-size:167.40974426px;font-weight:bold;fill:#000000;fill-opacity:1;-inkscape-font-specification:Arial Bold" /></text>
    <text
       x="234.98981"
       y="8664.3721"
       id="text5395-2-1"
       xml:space="preserve"
       style="font-size:142.29049683px;font-style:normal;font-weight:normal;line-height:125%;letter-spacing:0px;word-spacing:0px;fill:#000000;fill-opacity:1;stroke:none;font-family:Arial"
       sodipodi:linespacing="125%"
       transform="scale(0.98812843,1.0120142)"><tspan
         x="234.98981"
         y="8664.3721"
         id="tspan5397-3-0"
         style="font-size:128.45669556px;font-weight:bold;fill:#000000;fill-opacity:1;-inkscape-font-specification:Arial Bold">Web of Things Interest Group</tspan></text>
    <text
       x="229.38199"
       y="8791.6348"
       id="text5395-2-1-4"
       xml:space="preserve"
       style="font-size:127.50356293px;font-style:normal;font-variant:normal;font-weight:normal;font-stretch:normal;text-align:start;line-height:125%;letter-spacing:0px;word-spacing:0px;writing-mode:lr-tb;text-anchor:start;fill:#000000;fill-opacity:1;stroke:none;display:inline;font-family:Arial;-inkscape-font-specification:Arial"
       sodipodi:linespacing="125%"
       transform="scale(0.9807966,1.0195794)"><tspan
         sodipodi:role="line"
         id="tspan3070"
         x="229.38199"
         y="8791.6348">http://www.w3.org/WoT/</tspan><tspan
         sodipodi:role="line"
         x="229.38199"
         y="8951.0146"
         id="tspan3119">public-wot-ig@w3.org</tspan></text>
  </g>
</svg>
