<?xml version="1.0" encoding="UTF-8" standalone="no"?>
<svg
   xmlns:dc="http://purl.org/dc/elements/1.1/"
   xmlns:cc="http://creativecommons.org/ns#"
   xmlns:rdf="http://www.w3.org/1999/02/22-rdf-syntax-ns#"
   xmlns:svg="http://www.w3.org/2000/svg"
   xmlns="http://www.w3.org/2000/svg"
   xmlns:sodipodi="http://sodipodi.sourceforge.net/DTD/sodipodi-0.dtd"
   xmlns:inkscape="http://www.inkscape.org/namespaces/inkscape"
   version="1.0"
   width="1052.3622"
   height="744.09448"
   id="0"
   inkscape:version="0.48.0 r9654"
   sodipodi:docname="demo-setup.svg">
  <metadata
     id="metadata3049">
    <rdf:RDF>
      <cc:Work
         rdf:about="">
        <dc:format>image/svg+xml</dc:format>
        <dc:type
           rdf:resource="http://purl.org/dc/dcmitype/StillImage" />
        <dc:title />
      </cc:Work>
    </rdf:RDF>
  </metadata>
  <defs
     id="defs3047" />
  <sodipodi:namedview
     pagecolor="#ffffff"
     bordercolor="#666666"
     borderopacity="1"
     objecttolerance="10"
     gridtolerance="10"
     guidetolerance="10"
     inkscape:pageopacity="0"
     inkscape:pageshadow="2"
     inkscape:window-width="1728"
     inkscape:window-height="917"
     id="namedview3045"
     showgrid="false"
     inkscape:zoom="1"
     inkscape:cx="449.29135"
     inkscape:cy="383.68228"
     inkscape:window-x="1615"
     inkscape:window-y="55"
     inkscape:window-maximized="0"
     inkscape:current-layer="1" />
  <g
     id="1"
     transform="translate(0,68.740118)">
    <path
       id="2"
       style="fill:#ffffff;fill-opacity:1;fill-rule:evenodd;stroke:none"
       d="m 55.6,-38.4 0,710.6774 947.5698,0 0,-710.6774 -947.5698,0 z"
       inkscape:connector-curvature="0" />
    <path
       id="3"
       style="fill:#4f81bd;fill-opacity:1;fill-rule:evenodd;stroke:none"
       d="m 89.130155,48.312513 0,141.780137 246.249715,0 0,-141.780137 -246.249715,0 z"
       inkscape:connector-curvature="0" />
    <path
       id="4"
       style="fill:#385d8a;fill-opacity:1;fill-rule:nonzero;stroke:#385d8a;stroke-width:0.00987052px;stroke-linecap:butt;stroke-linejoin:round;stroke-opacity:1;stroke-dasharray:none"
       d="m 87.817375,48.312513 c 0,-0.730418 0.582361,-1.312779 1.31278,-1.312779 l 246.249715,0 c 0.72055,0 1.31278,0.582361 1.31278,1.312779 l 0,141.780137 c 0,0.72055 -0.59223,1.31278 -1.31278,1.31278 l -246.249715,0 c -0.730419,0 -1.31278,-0.59223 -1.31278,-1.31278 z m 2.625558,141.780137 -1.312778,-1.32265 246.249715,0 -1.32265,1.32265 0,-141.780137 1.32265,1.312779 -246.249715,0 1.312778,-1.312779 z"
       inkscape:connector-curvature="0" />
    <text
       id="5"
       xml:space="preserve"
       x="128.2547"
       y="94.00589"
       style="font-size:23.68924713px;font-style:normal;font-weight:normal;text-align:start;text-anchor:start;fill:#ffffff;font-family:Calibri">Thing Description</text>
    <text
       id="6"
       xml:space="preserve"
       x="99.037949"
       y="139.64717"
       style="font-size:18.47761154px;font-style:normal;font-weight:normal;text-align:start;text-anchor:start;fill:#ffffff;font-family:Calibri">Semantics, auto UI</text>
    <text
       id="7"
       xml:space="preserve"
       x="238.64659"
       y="139.64717"
       style="font-size:18.47761154px;font-style:normal;font-weight:normal;text-align:start;text-anchor:start;fill:#ffffff;font-family:Calibri">, reasoning,</text>
    <text
       id="8"
       xml:space="preserve"
       x="120.04242"
       y="161.75714"
       style="font-size:18.47761154px;font-style:normal;font-weight:normal;text-align:start;text-anchor:start;fill:#ffffff;font-family:Calibri">Repo, </text>
    <text
       id="9"
       xml:space="preserve"
       x="166.63126"
       y="161.75714"
       style="font-size:18.47761154px;font-style:normal;font-weight:normal;text-align:start;text-anchor:start;fill:#ffffff;font-family:Calibri">WebUI</text>
    <text
       id="10"
       xml:space="preserve"
       x="217.64212"
       y="161.75714"
       style="font-size:18.47761154px;font-style:normal;font-weight:normal;text-align:start;text-anchor:start;fill:#ffffff;font-family:Calibri">, </text>
    <text
       id="11"
       xml:space="preserve"
       x="226.4861"
       y="161.75714"
       style="font-size:18.47761154px;font-style:normal;font-weight:normal;text-align:start;text-anchor:start;fill:#ffffff;font-family:Calibri">NodeMCU</text>
    <path
       id="12"
       style="fill:#4f81bd;fill-opacity:1;fill-rule:evenodd;stroke:none"
       d="m 372.7003,48.322384 0,141.780146 291.00266,0 0,-141.780146 -291.00266,0 z"
       inkscape:connector-curvature="0" />
    <path
       id="13"
       style="fill:#385d8a;fill-opacity:1;fill-rule:nonzero;stroke:#385d8a;stroke-width:0.01974104px;stroke-linecap:butt;stroke-linejoin:round;stroke-opacity:1;stroke-dasharray:none"
       d="m 371.37765,48.322384 c 0,-0.730419 0.59224,-1.32265 1.32265,-1.32265 l 291.00266,0 c 0.73042,0 1.32265,0.592231 1.32265,1.32265 l 0,141.780146 c 0,0.71067 -0.59223,1.3029 -1.32265,1.3029 l -291.00266,0 c -0.73041,0 -1.32265,-0.59223 -1.32265,-1.3029 z m 2.62557,141.780146 -1.30292,-1.32265 291.00266,0 -1.3029,1.32265 0,-141.780146 1.3029,1.302908 -291.00266,0 1.30292,-1.302908 z"
       inkscape:connector-curvature="0" />
    <text
       id="14"
       xml:space="preserve"
       x="457.62311"
       y="82.950905"
       style="font-size:23.68924713px;font-style:normal;font-weight:normal;text-align:start;text-anchor:start;fill:#ffffff;font-family:Calibri">Scripting API</text>
    <text
       id="15"
       xml:space="preserve"
       x="394.45178"
       y="128.59219"
       style="font-size:18.47761154px;font-style:normal;font-weight:normal;text-align:start;text-anchor:start;fill:#ffffff;font-family:Calibri">Scripts instead of embedded dev</text>
    <text
       id="16"
       xml:space="preserve"
       x="637.50342"
       y="128.59219"
       style="font-size:18.47761154px;font-style:normal;font-weight:normal;text-align:start;text-anchor:start;fill:#ffffff;font-family:Calibri">,</text>
    <text
       id="17"
       xml:space="preserve"
       x="384.81818"
       y="150.70213"
       style="font-size:18.47761154px;font-style:normal;font-weight:normal;text-align:start;text-anchor:start;fill:#ffffff;font-family:Calibri">portable, browser/Web integration;</text>
    <text
       id="18"
       xml:space="preserve"
       x="384.02853"
       y="172.81212"
       style="font-size:18.47761154px;font-style:normal;font-weight:normal;text-align:start;text-anchor:start;fill:#ffffff;font-family:Calibri">Browser lib, IOT2000, </text>
    <text
       id="19"
       xml:space="preserve"
       x="548.11603"
       y="172.81212"
       style="font-size:18.47761154px;font-style:normal;font-weight:normal;text-align:start;text-anchor:start;fill:#ffffff;font-family:Calibri">LuaNodeMCU</text>
    <path
       id="20"
       style="fill:#4f81bd;fill-opacity:1;fill-rule:evenodd;stroke:none"
       d="m 693.55142,48.342125 0,141.780145 261.17394,0 0,-141.780145 -261.17394,0 z"
       inkscape:connector-curvature="0" />
    <path
       id="21"
       style="fill:#385d8a;fill-opacity:1;fill-rule:nonzero;stroke:#385d8a;stroke-width:0.03948208px;stroke-linecap:butt;stroke-linejoin:round;stroke-opacity:1;stroke-dasharray:none"
       d="m 692.2485,48.342125 c 0,-0.75016 0.59223,-1.342391 1.30292,-1.342391 l 261.17394,0 c 0.75016,0 1.34239,0.592231 1.34239,1.342391 l 0,141.780145 c 0,0.71067 -0.59223,1.30291 -1.34239,1.30291 l -261.17394,0 c -0.71069,0 -1.30292,-0.59224 -1.30292,-1.30291 z m 2.6453,141.780145 -1.34238,-1.34239 261.17394,0 -1.30291,1.34239 0,-141.780145 1.30291,1.302909 -261.17394,0 1.34238,-1.302909 z"
       inkscape:connector-curvature="0" />
    <text
       id="22"
       xml:space="preserve"
       x="740.40588"
       y="71.895935"
       style="font-size:23.68924713px;font-style:normal;font-weight:normal;text-align:start;text-anchor:start;fill:#ffffff;font-family:Calibri">Protocol Bindings</text>
    <text
       id="23"
       xml:space="preserve"
       x="715.13739"
       y="117.53722"
       style="font-size:18.47761154px;font-style:normal;font-weight:normal;text-align:start;text-anchor:start;fill:#ffffff;font-family:Calibri">Orchestrate across protocols, </text>
    <text
       id="24"
       xml:space="preserve"
       x="749.24988"
       y="139.64717"
       style="font-size:18.47761154px;font-style:normal;font-weight:normal;text-align:start;text-anchor:start;fill:#ffffff;font-family:Calibri">platforms, domains;</text>
    <text
       id="25"
       xml:space="preserve"
       x="748.14441"
       y="161.75714"
       style="font-size:18.47761154px;font-style:normal;font-weight:normal;text-align:start;text-anchor:start;fill:#ffffff;font-family:Calibri">BACnet</text>
    <text
       id="26"
       xml:space="preserve"
       x="803.26141"
       y="161.75714"
       style="font-size:18.47761154px;font-style:normal;font-weight:normal;text-align:start;text-anchor:start;fill:#ffffff;font-family:Calibri">, </text>
    <text
       id="27"
       xml:space="preserve"
       x="812.10535"
       y="161.75714"
       style="font-size:18.47761154px;font-style:normal;font-weight:normal;text-align:start;text-anchor:start;fill:#ffffff;font-family:Calibri">CoAP</text>
    <text
       id="28"
       xml:space="preserve"
       x="849.69232"
       y="161.75714"
       style="font-size:18.47761154px;font-style:normal;font-weight:normal;text-align:start;text-anchor:start;fill:#ffffff;font-family:Calibri">, HTTP, </text>
    <text
       id="29"
       xml:space="preserve"
       x="725.56067"
       y="183.86711"
       style="font-size:18.47761154px;font-style:normal;font-weight:normal;text-align:start;text-anchor:start;fill:#ffffff;font-family:Calibri">Lemonbeat</text>
    <text
       id="30"
       xml:space="preserve"
       x="810.21027"
       y="183.86711"
       style="font-size:18.47761154px;font-style:normal;font-weight:normal;text-align:start;text-anchor:start;fill:#ffffff;font-family:Calibri">, ECHONET </text>
    <text
       id="31"
       xml:space="preserve"
       x="895.49152"
       y="183.86711"
       style="font-size:18.47761154px;font-style:normal;font-weight:normal;text-align:start;text-anchor:start;fill:#ffffff;font-family:Calibri">Lite</text>
    <path
       id="32"
       style="fill:#4f81bd;fill-opacity:1;fill-rule:evenodd;stroke:none"
       d="m 104.08399,421.40828 0,171.62859 850.64137,0 0,-171.62859 -850.64137,0 z"
       inkscape:connector-curvature="0" />
    <path
       id="33"
       style="fill:#385d8a;fill-opacity:1;fill-rule:nonzero;stroke:#385d8a;stroke-width:0.03948208px;stroke-linecap:butt;stroke-linejoin:round;stroke-opacity:1;stroke-dasharray:none"
       d="m 102.7416,421.40828 c 0,-0.71068 0.59223,-1.30291 1.34239,-1.30291 l 850.64137,0 c 0.75016,0 1.34239,0.59223 1.34239,1.30291 l 0,171.62859 c 0,0.75016 -0.59223,1.34239 -1.34239,1.34239 l -850.64137,0 c -0.75016,0 -1.34239,-0.59223 -1.34239,-1.34239 z m 2.6453,171.62859 -1.30291,-1.30291 850.64137,0 -1.30291,1.30291 0,-171.62859 1.30291,1.34239 -850.64137,0 1.30291,-1.34239 z"
       inkscape:connector-curvature="0" />
    <text
       id="34"
       xml:space="preserve"
       x="468.36206"
       y="478.8718"
       style="font-size:23.68924713px;font-style:normal;font-weight:normal;text-align:start;text-anchor:start;fill:#ffffff;font-family:Calibri">Full Scenario</text>
    <text
       id="35"
       xml:space="preserve"
       x="340.59805"
       y="524.51306"
       style="font-size:18.47761154px;font-style:normal;font-weight:normal;text-align:start;text-anchor:start;fill:#ffffff;font-family:Calibri">Browser, IOT2000, </text>
    <text
       id="36"
       xml:space="preserve"
       x="480.83841"
       y="524.51306"
       style="font-size:18.47761154px;font-style:normal;font-weight:normal;text-align:start;text-anchor:start;fill:#ffffff;font-family:Calibri">RaspberryPi</text>
    <text
       id="37"
       xml:space="preserve"
       x="574.80573"
       y="524.51306"
       style="font-size:18.47761154px;font-style:normal;font-weight:normal;text-align:start;text-anchor:start;fill:#ffffff;font-family:Calibri">LED, AC, </text>
    <text
       id="38"
       xml:space="preserve"
       x="640.18811"
       y="524.51306"
       style="font-size:18.47761154px;font-style:normal;font-weight:normal;text-align:start;text-anchor:start;fill:#ffffff;font-family:Calibri">NodeMCU</text>
    <path
       id="39"
       style="fill:#9bbb59;fill-opacity:1;fill-rule:evenodd;stroke:none"
       d="m 89.130155,-11.384388 0,37.310564 246.249715,0 0,-37.310564 -246.249715,0 z"
       inkscape:connector-curvature="0" />
    <path
       id="40"
       style="fill:#71893f;fill-opacity:1;fill-rule:nonzero;stroke:#71893f;stroke-width:0.00987052px;stroke-linecap:butt;stroke-linejoin:round;stroke-opacity:1;stroke-dasharray:none"
       d="m 87.817375,-11.384388 c 0,-0.730419 0.582361,-1.312779 1.31278,-1.312779 l 246.249715,0 c 0.72055,0 1.31278,0.58236 1.31278,1.312779 l 0,37.310564 c 0,0.730417 -0.59223,1.312778 -1.31278,1.312778 l -246.249715,0 c -0.730419,0 -1.31278,-0.582361 -1.31278,-1.312778 z m 2.625558,37.310564 -1.312778,-1.31278 246.249715,0 -1.32265,1.31278 0,-37.310564 1.32265,1.312779 -246.249715,0 1.312778,-1.312779 z"
       inkscape:connector-curvature="0" />
    <text
       id="41"
       xml:space="preserve"
       x="166.1575"
       y="15.240702"
       style="font-size:23.68924713px;font-style:normal;font-weight:normal;text-align:start;text-anchor:start;fill:#ffffff;font-family:Calibri">Poster TD</text>
    <path
       id="42"
       style="fill:#9bbb59;fill-opacity:1;fill-rule:evenodd;stroke:none"
       d="m 387.62453,-11.374518 0,37.310563 246.22998,0 0,-37.310563 -246.22998,0 z"
       inkscape:connector-curvature="0" />
    <path
       id="43"
       style="fill:#71893f;fill-opacity:1;fill-rule:nonzero;stroke:#71893f;stroke-width:0.01974104px;stroke-linecap:butt;stroke-linejoin:round;stroke-opacity:1;stroke-dasharray:none"
       d="m 386.30188,-11.374518 c 0,-0.730418 0.59223,-1.322649 1.32265,-1.322649 l 246.22998,0 c 0.73042,0 1.32265,0.592231 1.32265,1.322649 l 0,37.310563 c 0,0.710679 -0.59223,1.302909 -1.32265,1.302909 l -246.22998,0 c -0.73042,0 -1.32265,-0.59223 -1.32265,-1.302909 z m 2.62557,37.310563 -1.30292,-1.322649 246.22998,0 -1.30291,1.322649 0,-37.310563 1.30291,1.302909 -246.22998,0 1.30292,-1.302909 z"
       inkscape:connector-curvature="0" />
    <text
       id="44"
       xml:space="preserve"
       x="465.42749"
       y="15.240702"
       style="font-size:23.68924713px;font-style:normal;font-weight:normal;text-align:start;text-anchor:start;fill:#ffffff;font-family:Calibri">Poster SA</text>
    <path
       id="45"
       style="fill:#9bbb59;fill-opacity:1;fill-rule:evenodd;stroke:none"
       d="m 693.55142,-11.354776 0,37.310563 246.24971,0 0,-37.310563 -246.24971,0 z"
       inkscape:connector-curvature="0" />
    <path
       id="46"
       style="fill:#71893f;fill-opacity:1;fill-rule:nonzero;stroke:#71893f;stroke-width:0.03948208px;stroke-linecap:butt;stroke-linejoin:round;stroke-opacity:1;stroke-dasharray:none"
       d="m 692.2485,-11.354776 c 0,-0.75016 0.59223,-1.342391 1.30292,-1.342391 l 246.24971,0 c 0.75016,0 1.34239,0.592231 1.34239,1.342391 l 0,37.310563 c 0,0.710677 -0.59223,1.302909 -1.34239,1.302909 l -246.24971,0 c -0.71069,0 -1.30292,-0.592232 -1.30292,-1.302909 z m 2.6453,37.310563 -1.34238,-1.342391 246.24971,0 -1.30291,1.342391 0,-37.310563 1.30291,1.302908 -246.24971,0 1.34238,-1.302908 z"
       inkscape:connector-curvature="0" />
    <text
       id="47"
       xml:space="preserve"
       x="771.05072"
       y="15.240702"
       style="font-size:23.68924713px;font-style:normal;font-weight:normal;text-align:start;text-anchor:start;fill:#ffffff;font-family:Calibri">Poster PB</text>
    <path
       id="48"
       style="fill:#9bbb59;fill-opacity:1;fill-rule:evenodd;stroke:none"
       d="m 395.10639,607.96109 0,37.31057 246.21023,0 0,-37.31057 -246.21023,0 z"
       inkscape:connector-curvature="0" />
    <path
       id="49"
       style="fill:#71893f;fill-opacity:1;fill-rule:nonzero;stroke:#71893f;stroke-width:0.03948208px;stroke-linecap:butt;stroke-linejoin:round;stroke-opacity:1;stroke-dasharray:none"
       d="m 393.76399,607.96109 c 0,-0.71067 0.59224,-1.3029 1.3424,-1.3029 l 246.21023,0 c 0.75016,0 1.3424,0.59223 1.3424,1.3029 l 0,37.31057 c 0,0.75016 -0.59224,1.34239 -1.3424,1.34239 l -246.21023,0 c -0.75016,0 -1.3424,-0.59223 -1.3424,-1.34239 z m 2.6453,37.31057 -1.3029,-1.30291 246.21023,0 -1.3029,1.30291 0,-37.31057 1.3029,1.3424 -246.21023,0 1.3029,-1.3424 z"
       inkscape:connector-curvature="0" />
    <text
       id="50"
       xml:space="preserve"
       x="474.46881"
       y="634.5874"
       style="font-size:23.68924713px;font-style:normal;font-weight:normal;text-align:start;text-anchor:start;fill:#ffffff;font-family:Calibri">Poster FS</text>
    <path
       id="51"
       style="fill:#9bbb59;fill-opacity:1;fill-rule:evenodd;stroke:none"
       d="m 163.76115,555.72631 0,22.38633 186.55282,0 0,-22.38633 -186.55282,0 z"
       inkscape:connector-curvature="0" />
    <path
       id="52"
       style="fill:#71893f;fill-opacity:1;fill-rule:nonzero;stroke:#71893f;stroke-width:0.01974104px;stroke-linecap:butt;stroke-linejoin:round;stroke-opacity:1;stroke-dasharray:none"
       d="m 162.4385,555.72631 c 0,-0.73043 0.59223,-1.30292 1.32265,-1.30292 l 186.55282,0 c 0.71068,0 1.30291,0.57249 1.30291,1.30292 l 0,22.38633 c 0,0.73043 -0.59223,1.32265 -1.30291,1.32265 l -186.55282,0 c -0.73042,0 -1.32265,-0.59222 -1.32265,-1.32265 z m 2.62556,22.38633 -1.30291,-1.30291 186.55282,0 -1.32265,1.30291 0,-22.38633 1.32265,1.32265 -186.55282,0 1.30291,-1.32265 z"
       inkscape:connector-curvature="0" />
    <text
       id="53"
       xml:space="preserve"
       x="205.58298"
       y="574.89136"
       style="font-size:23.68924713px;font-style:normal;font-weight:normal;text-align:start;text-anchor:start;fill:#ffffff;font-family:Calibri">Screen: AC</text>
    <path
       id="54"
       style="fill:#9bbb59;fill-opacity:1;fill-rule:evenodd;stroke:none"
       d="m 118.97861,48.312513 0,22.386343 186.55282,0 0,-22.386343 -186.55283,0 z"
       inkscape:connector-curvature="0" />
    <path
       id="55"
       style="fill:#71893f;fill-opacity:1;fill-rule:nonzero;stroke:#71893f;stroke-width:0.00987052px;stroke-linecap:butt;stroke-linejoin:round;stroke-opacity:1;stroke-dasharray:none"
       d="m 117.66583,48.312513 c 0,-0.730418 0.58236,-1.312779 1.31278,-1.312779 l 186.55282,0 c 0.72055,0 1.31277,0.582361 1.31277,1.312779 l 0,22.386343 c 0,0.720548 -0.59222,1.312777 -1.31277,1.312777 l -186.55283,0 c -0.73041,0 -1.31277,-0.592229 -1.31277,-1.312777 z m 2.62555,22.386343 -1.31278,-1.32265 186.55283,0 -1.32265,1.32265 0,-22.386343 1.32265,1.312779 -186.55283,0 1.31278,-1.312779 z"
       inkscape:connector-curvature="0" />
    <text
       id="56"
       xml:space="preserve"
       x="130.01495"
       y="67.474762"
       style="font-size:23.68924713px;font-style:normal;font-weight:normal;text-align:start;text-anchor:start;fill:#ffffff;font-family:Calibri">Screen: Live view</text>
    <path
       id="57"
       style="fill:#9bbb59;fill-opacity:1;fill-rule:evenodd;stroke:none"
       d="m 701.01353,555.72631 0,22.38633 186.55281,0 0,-22.38633 -186.55281,0 z"
       inkscape:connector-curvature="0" />
    <path
       id="58"
       style="fill:#71893f;fill-opacity:1;fill-rule:nonzero;stroke:#71893f;stroke-width:0.03948208px;stroke-linecap:butt;stroke-linejoin:round;stroke-opacity:1;stroke-dasharray:none"
       d="m 699.71061,555.72631 c 0,-0.71068 0.59224,-1.30292 1.30292,-1.30292 l 186.55281,0 c 0.75016,0 1.3424,0.59224 1.3424,1.30292 l 0,22.38633 c 0,0.75016 -0.59224,1.34239 -1.3424,1.34239 l -186.55281,0 c -0.71068,0 -1.30292,-0.59223 -1.30292,-1.34239 z m 2.6453,22.38633 -1.34238,-1.30291 186.55281,0 -1.3029,1.30291 0,-22.38633 1.3029,1.34238 -186.55281,0 1.34238,-1.34238 z"
       inkscape:connector-curvature="0" />
    <text
       id="59"
       xml:space="preserve"
       x="710.63031"
       y="574.89136"
       style="font-size:23.68924713px;font-style:normal;font-weight:normal;text-align:start;text-anchor:start;fill:#ffffff;font-family:Calibri">Screen: Curtains?</text>
    <flowRoot
       xml:space="preserve"
       id="flowRoot3040"
       style="font-size:40px;font-style:normal;font-weight:normal;line-height:125%;letter-spacing:0px;word-spacing:0px;fill:#000000;fill-opacity:1;stroke:none;font-family:Sans"
       transform="matrix(0.19741039,0,0,0.19741039,55.678964,-38.321036)"><flowRegion
         id="flowRegion3042"><rect
           id="rect3044"
           width="4930.1577"
           height="4072.739"
           x="-41.68008"
           y="-128.47572" /></flowRegion><flowPara
         id="flowPara3046"></flowPara></flowRoot>  </g>
</svg>
