<?xml version="1.0" encoding="UTF-8" standalone="no"?>
<!DOCTYPE svg PUBLIC "-//W3C//DTD SVG 1.1//EN"
 "http://www.w3.org/Graphics/SVG/1.1/DTD/svg11.dtd">
<!-- Generated by graphviz version 2.40.1 (20161225.0304)
 -->
<!-- Title: 2018&#45;Sept&#45;Online&#45;Plugfest Pages: 1 -->
<svg width="1335pt" height="1355pt"
 viewBox="0.00 0.00 1334.66 1355.46" xmlns="http://www.w3.org/2000/svg" xmlns:xlink="http://www.w3.org/1999/xlink">
<g id="hit_graph0" class="graph" transform="scale(1 1) rotate(0) translate(4 1351.4558)">
<title>2018&#45;Sept&#45;Online&#45;Plugfest</title>
<polygon fill="#ffffff" stroke="transparent" points="-4,4 -4,-1351.4558 1330.6631,-1351.4558 1330.6631,4 -4,4"/>
<!-- apps -->
<g id="hit_node1_hit" class="node">
<title>apps</title>
<polygon fill="#ffa500" stroke="transparent" points="111.5724,-36 26.591,-36 26.591,0 111.5724,0 111.5724,-36"/>
<text text-anchor="middle" x="69.0817" y="-13.8" font-family="Helvetica,sans-Serif" font-size="14.00" fill="#000000">Application</text>
</g>
<!-- rpx -->
<g id="hit_node7_hit" class="node">
<title>rpx</title>
<polygon fill="#00ff00" stroke="transparent" points="472.35,-36 407.309,-36 407.309,0 472.35,0 472.35,-36"/>
<text text-anchor="middle" x="439.8295" y="-20.8" font-family="Helvetica,sans-Serif" font-size="14.00" fill="#000000">Remote</text>
<text text-anchor="middle" x="439.8295" y="-6.8" font-family="Helvetica,sans-Serif" font-size="14.00" fill="#000000">Proxies</text>
</g>
<!-- apps&#45;&gt;rpx -->
<g id="hit_edge1" class="edge">
<title>apps&#45;&gt;rpx</title>
<path fill="none" stroke="#000000" d="M111.6112,-18C182.8012,-18 325.3078,-18 396.8182,-18"/>
<polygon fill="#000000" stroke="#000000" points="397.2506,-21.5001 407.2505,-18 397.2505,-14.5001 397.2506,-21.5001"/>
</g>
<!-- fujitsu_nr -->
<g id="hit_node2_hit" class="node">
<title>fujitsu_nr</title>
<ellipse fill="#ffa500" stroke="#000000" cx="69.0817" cy="-521" rx="55.7618" ry="25.4118"/>
<text text-anchor="middle" x="69.0817" y="-523.8" font-family="Helvetica,sans-Serif" font-size="14.00" fill="#000000">NodeRED</text>
<text text-anchor="middle" x="69.0817" y="-509.8" font-family="Helvetica,sans-Serif" font-size="14.00" fill="#000000">(Fujitsu)</text>
</g>
<!-- fujitsuremotepx -->
<g id="hit_node8_hit" class="node">
<title>fujitsuremotepx</title>
<ellipse fill="#00ff00" stroke="#000000" cx="439.8295" cy="-858" rx="72.8685" ry="25.4118"/>
<text text-anchor="middle" x="439.8295" y="-860.8" font-family="Helvetica,sans-Serif" font-size="14.00" fill="#000000">Remote proxy</text>
<text text-anchor="middle" x="439.8295" y="-846.8" font-family="Helvetica,sans-Serif" font-size="14.00" fill="#000000">(Fujitsu)</text>
</g>
<!-- fujitsu_nr&#45;&gt;fujitsuremotepx -->
<g id="hit_edge23" class="edge">
<title>fujitsu_nr&#45;&gt;fujitsuremotepx</title>
<path fill="none" stroke="#000000" d="M73.4818,-546.4945C84.8381,-609.3042 117.0025,-768.9403 156.1634,-804 157.1546,-804.8874 281.6944,-828.367 365.4074,-844.0701"/>
<polygon fill="#000000" stroke="#000000" points="364.9291,-847.5413 375.4029,-845.9445 366.2194,-840.6612 364.9291,-847.5413"/>
<text text-anchor="middle" x="244.0872" y="-838.8" font-family="Helvetica,sans-Serif" font-size="14.00" fill="#000000">http+basic</text>
</g>
<!-- pana_devsim -->
<g id="hit_node15_hit" class="node">
<title>pana_devsim</title>
<ellipse fill="#00ffff" stroke="#000000" cx="1245.2747" cy="-1016" rx="64.2739" ry="25.4118"/>
<text text-anchor="middle" x="1245.2747" y="-1018.8" font-family="Helvetica,sans-Serif" font-size="14.00" fill="#000000">Device sim.</text>
<text text-anchor="middle" x="1245.2747" y="-1004.8" font-family="Helvetica,sans-Serif" font-size="14.00" fill="#000000">(Panasonic)</text>
</g>
<!-- fujitsu_nr&#45;&gt;pana_devsim -->
<g id="hit_edge24" class="edge">
<title>fujitsu_nr&#45;&gt;pana_devsim</title>
<path fill="none" stroke="#000000" d="M94.9435,-543.8836C111.6667,-557.9844 134.3178,-575.8238 156.1634,-589 319.5178,-687.5275 363.784,-714.1436 547.648,-765 716.0481,-811.5791 819.0413,-712.1688 932.5494,-845 971.0147,-890.0134 908.599,-935.2156 950.5494,-977 954.5012,-980.9362 1087.5609,-997.3461 1173.5251,-1007.5845"/>
<polygon fill="#000000" stroke="#000000" points="1173.1604,-1011.0657 1183.5037,-1008.7704 1173.9866,-1004.1146 1173.1604,-1011.0657"/>
<text text-anchor="middle" x="645.3164" y="-822.8" font-family="Helvetica,sans-Serif" font-size="14.00" fill="#000000">https/</text>
<text text-anchor="middle" x="645.3164" y="-808.8" font-family="Helvetica,sans-Serif" font-size="14.00" fill="#000000">LongPoll/</text>
<text text-anchor="middle" x="645.3164" y="-794.8" font-family="Helvetica,sans-Serif" font-size="14.00" fill="#000000">+bearer</text>
<text text-anchor="middle" x="645.3164" y="-780.8" font-family="Helvetica,sans-Serif" font-size="14.00" fill="#000000">(websocket)</text>
</g>
<!-- pana_home -->
<g id="hit_node16_hit" class="node">
<title>pana_home</title>
<ellipse fill="#00ffff" stroke="#000000" cx="1245.2747" cy="-342" rx="75.8599" ry="25.4118"/>
<text text-anchor="middle" x="1245.2747" y="-344.8" font-family="Helvetica,sans-Serif" font-size="14.00" fill="#000000">Home Devices</text>
<text text-anchor="middle" x="1245.2747" y="-330.8" font-family="Helvetica,sans-Serif" font-size="14.00" fill="#000000">(Panasonic)</text>
</g>
<!-- fujitsu_nr&#45;&gt;pana_home -->
<g id="hit_edge25" class="edge">
<title>fujitsu_nr&#45;&gt;pana_home</title>
<path fill="none" stroke="#000000" d="M90.5612,-497.4194C106.9943,-480.7405 131.0396,-459.0971 156.1634,-446 315.4048,-362.9874 369.5352,-368.9078 547.648,-346 767.6085,-317.71 1029.8108,-327.8426 1161.2989,-335.9069"/>
<polygon fill="#000000" stroke="#000000" points="1161.1074,-339.4017 1171.3063,-336.5323 1161.5441,-332.4153 1161.1074,-339.4017"/>
<text text-anchor="middle" x="645.3164" y="-390.8" font-family="Helvetica,sans-Serif" font-size="14.00" fill="#000000">https/</text>
<text text-anchor="middle" x="645.3164" y="-376.8" font-family="Helvetica,sans-Serif" font-size="14.00" fill="#000000">LongPoll/</text>
<text text-anchor="middle" x="645.3164" y="-362.8" font-family="Helvetica,sans-Serif" font-size="14.00" fill="#000000">+bearer</text>
<text text-anchor="middle" x="645.3164" y="-348.8" font-family="Helvetica,sans-Serif" font-size="14.00" fill="#000000">(websocket)</text>
</g>
<!-- intel_light -->
<g id="hit_node17_hit" class="node">
<title>intel_light</title>
<ellipse fill="#00ffff" stroke="#000000" cx="1245.2747" cy="-640" rx="36.737" ry="25.4118"/>
<text text-anchor="middle" x="1245.2747" y="-642.8" font-family="Helvetica,sans-Serif" font-size="14.00" fill="#000000">Light</text>
<text text-anchor="middle" x="1245.2747" y="-628.8" font-family="Helvetica,sans-Serif" font-size="14.00" fill="#000000">(Intel)</text>
</g>
<!-- fujitsu_nr&#45;&gt;intel_light -->
<g id="hit_edge26" class="edge">
<title>fujitsu_nr&#45;&gt;intel_light</title>
<path fill="none" stroke="#000000" d="M124.8605,-518.5896C264.243,-512.9668 624.9923,-500.9873 742.9849,-522 839.7035,-539.2241 855.2732,-574.05 950.5494,-598 953.55,-598.7543 1117.0792,-621.8959 1199.2194,-633.499"/>
<polygon fill="#000000" stroke="#000000" points="1198.902,-636.9888 1209.2932,-634.9218 1199.881,-630.0576 1198.902,-636.9888"/>
<text text-anchor="middle" x="645.3164" y="-552.8" font-family="Helvetica,sans-Serif" font-size="14.00" fill="#000000">http/https</text>
<text text-anchor="middle" x="645.3164" y="-538.8" font-family="Helvetica,sans-Serif" font-size="14.00" fill="#000000">+basic</text>
<text text-anchor="middle" x="645.3164" y="-524.8" font-family="Helvetica,sans-Serif" font-size="14.00" fill="#000000">+bearer</text>
</g>
<!-- oracle_pump -->
<g id="hit_node18_hit" class="node">
<title>oracle_pump</title>
<ellipse fill="#00ffff" stroke="#000000" cx="1245.2747" cy="-786" rx="56.9754" ry="25.4118"/>
<text text-anchor="middle" x="1245.2747" y="-788.8" font-family="Helvetica,sans-Serif" font-size="14.00" fill="#000000">BluePump</text>
<text text-anchor="middle" x="1245.2747" y="-774.8" font-family="Helvetica,sans-Serif" font-size="14.00" fill="#000000">(Oracle)</text>
</g>
<!-- fujitsu_nr&#45;&gt;oracle_pump -->
<g id="hit_edge28" class="edge">
<title>fujitsu_nr&#45;&gt;oracle_pump</title>
<path fill="none" stroke="#000000" d="M117.9121,-533.7919C171.357,-548.394 259.1437,-574.1547 332.0111,-604 431.5715,-644.7784 444.6906,-682.7758 547.648,-714 631.3017,-739.3699 656.3376,-725.4313 742.9849,-737 835.4386,-749.344 857.7854,-758.2588 950.5494,-768 1028.504,-776.186 1118.479,-781.0147 1178.3051,-783.5763"/>
<polygon fill="#000000" stroke="#000000" points="1178.2395,-787.0766 1188.3773,-783.9984 1178.5327,-780.0827 1178.2395,-787.0766"/>
<text text-anchor="middle" x="645.3164" y="-753.8" font-family="Helvetica,sans-Serif" font-size="14.00" fill="#000000">https</text>
<text text-anchor="middle" x="645.3164" y="-739.8" font-family="Helvetica,sans-Serif" font-size="14.00" fill="#000000">+basic</text>
</g>
<!-- smart_lamp -->
<g id="hit_node21_hit" class="node">
<title>smart_lamp</title>
<ellipse fill="#00ffff" stroke="#000000" cx="1245.2747" cy="-224" rx="74.0436" ry="25.4118"/>
<text text-anchor="middle" x="1245.2747" y="-226.8" font-family="Helvetica,sans-Serif" font-size="14.00" fill="#000000">Lamp</text>
<text text-anchor="middle" x="1245.2747" y="-212.8" font-family="Helvetica,sans-Serif" font-size="14.00" fill="#000000">(SmartThings)</text>
</g>
<!-- fujitsu_nr&#45;&gt;smart_lamp -->
<g id="hit_edge27" class="edge">
<title>fujitsu_nr&#45;&gt;smart_lamp</title>
<path fill="none" stroke="#000000" d="M77.878,-495.7832C90.4437,-463.1943 116.4935,-406.6545 156.1634,-373 298.3702,-252.357 364.3108,-256.1321 547.648,-222 662.9222,-200.5392 1002.9033,-212.686 1161.7373,-219.8794"/>
<polygon fill="#000000" stroke="#000000" points="1161.7836,-223.385 1171.9331,-220.3456 1162.1035,-216.3923 1161.7836,-223.385"/>
<text text-anchor="middle" x="645.3164" y="-224.8" font-family="Helvetica,sans-Serif" font-size="14.00" fill="#000000">http</text>
</g>
<!-- siem_event -->
<g id="hit_node22_hit" class="node">
<title>siem_event</title>
<ellipse fill="#00ffff" stroke="#000000" cx="1245.2747" cy="-557" rx="70.9899" ry="25.4118"/>
<text text-anchor="middle" x="1245.2747" y="-559.8" font-family="Helvetica,sans-Serif" font-size="14.00" fill="#000000">Event Source</text>
<text text-anchor="middle" x="1245.2747" y="-545.8" font-family="Helvetica,sans-Serif" font-size="14.00" fill="#000000">(Siemens)</text>
</g>
<!-- fujitsu_nr&#45;&gt;siem_event -->
<g id="hit_edge29" class="edge">
<title>fujitsu_nr&#45;&gt;siem_event</title>
<path fill="none" stroke="#000000" d="M121.4425,-512.0867C326.0465,-477.8116 1064.3105,-359.5246 1145.8863,-423 1171.5786,-442.9915 1146.0411,-466.7731 1163.8863,-494 1172.8052,-507.6077 1185.6759,-519.5055 1198.559,-529.1883"/>
<polygon fill="#000000" stroke="#000000" points="1196.8183,-532.2468 1206.9854,-535.2271 1200.8959,-526.557 1196.8183,-532.2468"/>
<text text-anchor="middle" x="645.3164" y="-450.8" font-family="Helvetica,sans-Serif" font-size="14.00" fill="#000000">http/coap/LongPoll/(websocket)</text>
</g>
<!-- siem_festo -->
<g id="hit_node24_hit" class="node">
<title>siem_festo</title>
<ellipse fill="#00ffff" stroke="#000000" cx="1245.2747" cy="-460" rx="56.9657" ry="25.4118"/>
<text text-anchor="middle" x="1245.2747" y="-462.8" font-family="Helvetica,sans-Serif" font-size="14.00" fill="#000000">Festo Live</text>
<text text-anchor="middle" x="1245.2747" y="-448.8" font-family="Helvetica,sans-Serif" font-size="14.00" fill="#000000">(Siemens)</text>
</g>
<!-- fujitsu_nr&#45;&gt;siem_festo -->
<g id="hit_edge30" class="edge">
<title>fujitsu_nr&#45;&gt;siem_festo</title>
<path fill="none" stroke="#000000" stroke-dasharray="1,5" d="M102.6991,-500.3325C118.4167,-491.5451 137.7043,-481.9686 156.1634,-476 239.0514,-449.1988 263.7459,-459.126 350.0111,-447 615.0928,-409.7383 682.8765,-403.8238 950.5494,-401 1037.361,-400.0842 1062.1659,-378.0223 1145.8863,-401 1168.3361,-407.1615 1190.8502,-419.8557 1208.7596,-431.896"/>
<polygon fill="#000000" stroke="#000000" points="1206.9493,-434.8999 1217.1611,-437.7228 1210.9385,-429.1478 1206.9493,-434.8999"/>
</g>
<!-- eure_car -->
<g id="hit_node25_hit" class="node">
<title>eure_car</title>
<ellipse fill="#00ffff" stroke="#000000" cx="1245.2747" cy="-1119" rx="65.4495" ry="25.4118"/>
<text text-anchor="middle" x="1245.2747" y="-1121.8" font-family="Helvetica,sans-Serif" font-size="14.00" fill="#000000">MyCarThing</text>
<text text-anchor="middle" x="1245.2747" y="-1107.8" font-family="Helvetica,sans-Serif" font-size="14.00" fill="#000000">(Eurecom)</text>
</g>
<!-- fujitsu_nr&#45;&gt;eure_car -->
<g id="hit_edge31" class="edge">
<title>fujitsu_nr&#45;&gt;eure_car</title>
<path fill="none" stroke="#000000" d="M80.364,-546.1387C94.4786,-575.1728 121.1158,-622.8057 156.1634,-653 228.1272,-714.9985 263.6367,-703.4769 350.0111,-743 429.6494,-779.4408 454.6351,-778.7975 529.648,-824 538.3286,-829.2309 538.2447,-834.2192 547.648,-838 707.2207,-902.1608 808.4914,-758.8796 932.5494,-878 972.7186,-916.5704 916.0319,-958.299 950.5494,-1002 1004.3464,-1070.1098 1103.6616,-1098.7034 1172.0271,-1110.6209"/>
<polygon fill="#000000" stroke="#000000" points="1171.8623,-1114.1414 1182.3007,-1112.3275 1173.0094,-1107.2361 1171.8623,-1114.1414"/>
<text text-anchor="middle" x="645.3164" y="-871.8" font-family="Helvetica,sans-Serif" font-size="14.00" fill="#000000">https</text>
<text text-anchor="middle" x="645.3164" y="-857.8" font-family="Helvetica,sans-Serif" font-size="14.00" fill="#000000">+oauth2</text>
</g>
<!-- hitachinr -->
<g id="hit_node3_hit" class="node">
<title>hitachinr</title>
<ellipse fill="#ffa500" stroke="#000000" cx="69.0817" cy="-878" rx="55.7618" ry="25.4118"/>
<text text-anchor="middle" x="69.0817" y="-880.8" font-family="Helvetica,sans-Serif" font-size="14.00" fill="#000000">NodeRED</text>
<text text-anchor="middle" x="69.0817" y="-866.8" font-family="Helvetica,sans-Serif" font-size="14.00" fill="#000000">(Hitachi)</text>
</g>
<!-- hitachinr&#45;&gt;fujitsuremotepx -->
<g id="hit_edge5" class="edge">
<title>hitachinr&#45;&gt;fujitsuremotepx</title>
<path fill="none" stroke="#000000" d="M120.9673,-868.4535C132.5157,-866.6657 144.7258,-865.0354 156.1634,-864 223.3604,-857.9172 299.8586,-856.6259 356.4671,-856.7402"/>
<polygon fill="#000000" stroke="#000000" points="356.7865,-860.2412 366.799,-856.777 356.8115,-853.2413 356.7865,-860.2412"/>
<text text-anchor="middle" x="244.0872" y="-866.8" font-family="Helvetica,sans-Serif" font-size="14.00" fill="#000000">http+basic</text>
</g>
<!-- oracle_cloud -->
<g id="hit_node9_hit" class="node">
<title>oracle_cloud</title>
<ellipse fill="#00ff00" stroke="#000000" cx="439.8295" cy="-976" rx="89.6373" ry="25.4118"/>
<text text-anchor="middle" x="439.8295" y="-978.8" font-family="Helvetica,sans-Serif" font-size="14.00" fill="#000000">IoT Cloud Service</text>
<text text-anchor="middle" x="439.8295" y="-964.8" font-family="Helvetica,sans-Serif" font-size="14.00" fill="#000000">(Oracle)</text>
</g>
<!-- hitachinr&#45;&gt;oracle_cloud -->
<g id="hit_edge11" class="edge">
<title>hitachinr&#45;&gt;oracle_cloud</title>
<path fill="none" stroke="#000000" d="M88.8682,-902.1218C104.9614,-919.8509 129.3355,-942.7371 156.1634,-954 173.0464,-961.0878 265.5351,-967.3455 340.3837,-971.357"/>
<polygon fill="#000000" stroke="#000000" points="340.6477,-974.8757 350.8183,-971.9079 341.0168,-967.8854 340.6477,-974.8757"/>
<text text-anchor="middle" x="244.0872" y="-972.8" font-family="Helvetica,sans-Serif" font-size="14.00" fill="#000000">https+basic</text>
</g>
<!-- hitachinr&#45;&gt;pana_devsim -->
<g id="hit_edge8" class="edge">
<title>hitachinr&#45;&gt;pana_devsim</title>
<path fill="none" stroke="#000000" d="M124.0729,-883.0067C177.3377,-888.0566 260.3426,-896.4552 332.0111,-906 607.9793,-942.7534 673.4806,-977.758 950.5494,-1005 1025.3345,-1012.353 1111.2355,-1014.8905 1170.9293,-1015.7172"/>
<polygon fill="#000000" stroke="#000000" points="1170.9757,-1019.218 1181.019,-1015.8441 1171.0638,-1012.2185 1170.9757,-1019.218"/>
<text text-anchor="middle" x="645.3164" y="-993.8" font-family="Helvetica,sans-Serif" font-size="14.00" fill="#000000">https+bearer;</text>
<text text-anchor="middle" x="645.3164" y="-979.8" font-family="Helvetica,sans-Serif" font-size="14.00" fill="#000000">longpoll</text>
</g>
<!-- hitachinr&#45;&gt;pana_home -->
<g id="hit_edge9" class="edge">
<title>hitachinr&#45;&gt;pana_home</title>
<path fill="none" stroke="#000000" d="M76.5859,-852.681C88.1959,-817.6191 113.715,-754.3861 156.1634,-717 293.1277,-596.3698 368.6017,-628.4019 547.648,-593 633.749,-575.9757 662.5256,-599.0646 742.9849,-564 851.2728,-516.8076 843.2365,-447.3692 950.5494,-398 1017.083,-367.3913 1099.4463,-353.5124 1160.1758,-347.2195"/>
<polygon fill="#000000" stroke="#000000" points="1160.8832,-350.6668 1170.4912,-346.2018 1160.1958,-343.7007 1160.8832,-350.6668"/>
<text text-anchor="middle" x="645.3164" y="-609.8" font-family="Helvetica,sans-Serif" font-size="14.00" fill="#000000">https+bearer;</text>
<text text-anchor="middle" x="645.3164" y="-595.8" font-family="Helvetica,sans-Serif" font-size="14.00" fill="#000000">longpoll</text>
</g>
<!-- hitachinr&#45;&gt;intel_light -->
<g id="hit_edge10" class="edge">
<title>hitachinr&#45;&gt;intel_light</title>
<path fill="none" stroke="#000000" d="M91.0035,-854.5166C107.6565,-837.6877 131.783,-815.3699 156.1634,-800 196.0221,-774.8723 501.4437,-646.2347 547.648,-637 672.5158,-612.0432 1062.9156,-630.1081 1198.4019,-637.3581"/>
<polygon fill="#000000" stroke="#000000" points="1198.2884,-640.857 1208.4627,-637.9018 1198.6662,-633.8672 1198.2884,-640.857"/>
<text text-anchor="middle" x="645.3164" y="-639.8" font-family="Helvetica,sans-Serif" font-size="14.00" fill="#000000">https+basic</text>
</g>
<!-- keti_env -->
<g id="hit_node26_hit" class="node">
<title>keti_env</title>
<ellipse fill="#00ffff" stroke="#000000" cx="1245.2747" cy="-1253" rx="81.277" ry="25.4118"/>
<text text-anchor="middle" x="1245.2747" y="-1255.8" font-family="Helvetica,sans-Serif" font-size="14.00" fill="#000000">Env. IoT Sensor</text>
<text text-anchor="middle" x="1245.2747" y="-1241.8" font-family="Helvetica,sans-Serif" font-size="14.00" fill="#000000">(KETI)</text>
</g>
<!-- hitachinr&#45;&gt;keti_env -->
<g id="hit_edge4" class="edge">
<title>hitachinr&#45;&gt;keti_env</title>
<path fill="none" stroke="#000000" d="M87.9921,-902.3542C102.8652,-922.236 123.4609,-951.4488 138.1634,-979 148.3048,-998.004 139.4839,-1010.3693 156.1634,-1024 217.6743,-1074.2674 254.7036,-1037.7255 332.0111,-1056 429.1783,-1078.9691 449.6111,-1100.0841 547.648,-1119 633.2944,-1135.5252 656.887,-1124.0157 742.9849,-1138 898.3589,-1163.2364 1077.4403,-1208.1102 1174.2368,-1233.7042"/>
<polygon fill="#000000" stroke="#000000" points="1173.3512,-1237.0902 1183.9143,-1236.2713 1175.146,-1230.3242 1173.3512,-1237.0902"/>
<text text-anchor="middle" x="645.3164" y="-1140.8" font-family="Helvetica,sans-Serif" font-size="14.00" fill="#000000">http</text>
</g>
<!-- pana_nr -->
<g id="hit_node4_hit" class="node">
<title>pana_nr</title>
<ellipse fill="#ffa500" stroke="#000000" cx="69.0817" cy="-167" rx="64.2739" ry="25.4118"/>
<text text-anchor="middle" x="69.0817" y="-169.8" font-family="Helvetica,sans-Serif" font-size="14.00" fill="#000000">NodeRED</text>
<text text-anchor="middle" x="69.0817" y="-155.8" font-family="Helvetica,sans-Serif" font-size="14.00" fill="#000000">(Panasonic)</text>
</g>
<!-- pana_nr&#45;&gt;pana_home -->
<g id="hit_edge13" class="edge">
<title>pana_nr&#45;&gt;pana_home</title>
<path fill="none" stroke="#000000" d="M122.2814,-181.4977C133.4219,-184.2355 145.1351,-186.8962 156.1634,-189 328.5186,-221.8795 373.1171,-221.9343 547.648,-240 812.8993,-267.4562 890.7314,-208.4881 1145.8863,-286 1166.2194,-292.1769 1186.9676,-303.0134 1204.211,-313.5185"/>
<polygon fill="#000000" stroke="#000000" points="1202.5556,-316.6115 1212.8879,-318.9553 1206.2724,-310.6797 1202.5556,-316.6115"/>
<text text-anchor="middle" x="645.3164" y="-250.8" font-family="Helvetica,sans-Serif" font-size="14.00" fill="#000000">https+bearer</text>
</g>
<!-- smart_illumi -->
<g id="hit_node20_hit" class="node">
<title>smart_illumi</title>
<ellipse fill="#00ffff" stroke="#000000" cx="1245.2747" cy="-79" rx="67.3476" ry="25.4118"/>
<text text-anchor="middle" x="1245.2747" y="-81.8" font-family="Helvetica,sans-Serif" font-size="14.00" fill="#000000">Illumi&#45;sensor</text>
<text text-anchor="middle" x="1245.2747" y="-67.8" font-family="Helvetica,sans-Serif" font-size="14.00" fill="#000000">(Oracle)</text>
</g>
<!-- pana_nr&#45;&gt;smart_illumi -->
<g id="hit_edge14" class="edge">
<title>pana_nr&#45;&gt;smart_illumi</title>
<path fill="none" stroke="#000000" d="M128.0026,-156.7785C137.4022,-155.3641 147.0352,-154.0417 156.1634,-153 534.1263,-109.869 988.9627,-88.88 1167.7468,-81.8273"/>
<polygon fill="#000000" stroke="#000000" points="1167.9886,-85.3207 1177.8441,-81.4323 1167.7149,-78.326 1167.9886,-85.3207"/>
<text text-anchor="middle" x="645.3164" y="-119.8" font-family="Helvetica,sans-Serif" font-size="14.00" fill="#000000">mqtt</text>
</g>
<!-- pana_nr&#45;&gt;smart_lamp -->
<g id="hit_edge15" class="edge">
<title>pana_nr&#45;&gt;smart_lamp</title>
<path fill="none" stroke="#000000" d="M132.8001,-170.8802C140.6668,-171.2939 148.5986,-171.6798 156.1634,-172 595.9705,-190.6178 707.7652,-167.26 1145.8863,-210 1152.9211,-210.6863 1160.2217,-211.5065 1167.5274,-212.4011"/>
<polygon fill="#000000" stroke="#000000" points="1167.1076,-215.8758 1177.4684,-213.6614 1167.9881,-208.9314 1167.1076,-215.8758"/>
<text text-anchor="middle" x="645.3164" y="-186.8" font-family="Helvetica,sans-Serif" font-size="14.00" fill="#000000">http</text>
</g>
<!-- siem_park -->
<g id="hit_node23_hit" class="node">
<title>siem_park</title>
<ellipse fill="#00ffff" stroke="#000000" cx="1245.2747" cy="-148" rx="78.9914" ry="25.4118"/>
<text text-anchor="middle" x="1245.2747" y="-150.8" font-family="Helvetica,sans-Serif" font-size="14.00" fill="#000000">Parking Sensor</text>
<text text-anchor="middle" x="1245.2747" y="-136.8" font-family="Helvetica,sans-Serif" font-size="14.00" fill="#000000">(Siemens)</text>
</g>
<!-- pana_nr&#45;&gt;siem_park -->
<g id="hit_edge16" class="edge">
<title>pana_nr&#45;&gt;siem_park</title>
<path fill="none" stroke="#000000" d="M132.9257,-164.0692C224.6566,-160.009 399.0682,-152.8512 547.648,-150 766.2787,-145.8045 1023.5198,-146.5321 1156.1657,-147.3254"/>
<polygon fill="#000000" stroke="#000000" points="1156.2549,-150.8259 1166.2762,-147.3875 1156.298,-143.8261 1156.2549,-150.8259"/>
<text text-anchor="middle" x="645.3164" y="-152.8" font-family="Helvetica,sans-Serif" font-size="14.00" fill="#000000">mqtt</text>
</g>
<!-- pana_bwr -->
<g id="hit_node5_hit" class="node">
<title>pana_bwr</title>
<ellipse fill="#ffa500" stroke="#000000" cx="69.0817" cy="-1013" rx="64.2739" ry="25.4118"/>
<text text-anchor="middle" x="69.0817" y="-1015.8" font-family="Helvetica,sans-Serif" font-size="14.00" fill="#000000">Browser</text>
<text text-anchor="middle" x="69.0817" y="-1001.8" font-family="Helvetica,sans-Serif" font-size="14.00" fill="#000000">(Panasonic)</text>
</g>
<!-- pana_bwr&#45;&gt;fujitsuremotepx -->
<g id="hit_edge17" class="edge">
<title>pana_bwr&#45;&gt;fujitsuremotepx</title>
<path fill="none" stroke="#000000" d="M86.1954,-988.2473C101.9563,-967.374 127.2312,-938.3606 156.1634,-922 157.3429,-921.333 284.6452,-892.7485 368.2908,-874.0102"/>
<polygon fill="#000000" stroke="#000000" points="369.2704,-877.3776 378.2636,-871.7764 367.7404,-870.5468 369.2704,-877.3776"/>
<text text-anchor="middle" x="244.0872" y="-938.8" font-family="Helvetica,sans-Serif" font-size="14.00" fill="#000000">http+basic</text>
<text text-anchor="middle" x="244.0872" y="-924.8" font-family="Helvetica,sans-Serif" font-size="14.00" fill="#000000">(bypassing CORS checking)</text>
</g>
<!-- pana_bwr&#45;&gt;oracle_cloud -->
<g id="hit_edge19" class="edge">
<title>pana_bwr&#45;&gt;oracle_cloud</title>
<path fill="none" stroke="#000000" d="M132.3972,-1008.679C185.7133,-1004.8064 263.95,-998.5761 332.0111,-991 337.7868,-990.3571 343.7306,-989.6522 349.7187,-988.9095"/>
<polygon fill="#000000" stroke="#000000" points="350.3366,-992.3593 359.8165,-987.6282 349.4554,-985.4149 350.3366,-992.3593"/>
<text text-anchor="middle" x="244.0872" y="-1008.8" font-family="Helvetica,sans-Serif" font-size="14.00" fill="#000000">https+basic</text>
</g>
<!-- pana_bwr&#45;&gt;eure_car -->
<g id="hit_edge18" class="edge">
<title>pana_bwr&#45;&gt;eure_car</title>
<path fill="none" stroke="#000000" stroke-dasharray="1,5" d="M106.9015,-1033.8203C121.9263,-1041.5188 139.5594,-1049.8565 156.1634,-1056 324.5846,-1118.3155 369.4703,-1133.6029 547.648,-1156 776.1216,-1184.7193 1049.4172,-1150.4894 1175.3863,-1130.8846"/>
<polygon fill="#000000" stroke="#000000" points="1175.9583,-1134.3378 1185.2925,-1129.3256 1174.87,-1127.4229 1175.9583,-1134.3378"/>
<text text-anchor="middle" x="645.3164" y="-1169.8" font-family="Helvetica,sans-Serif" font-size="14.00" fill="#000000">https+oauth2</text>
</g>
<!-- pana_post -->
<g id="hit_node6_hit" class="node">
<title>pana_post</title>
<ellipse fill="#ffa500" stroke="#000000" cx="69.0817" cy="-1118" rx="69.1635" ry="25.4118"/>
<text text-anchor="middle" x="69.0817" y="-1120.8" font-family="Helvetica,sans-Serif" font-size="14.00" fill="#000000">Postman/curl</text>
<text text-anchor="middle" x="69.0817" y="-1106.8" font-family="Helvetica,sans-Serif" font-size="14.00" fill="#000000">(Panasonic)</text>
</g>
<!-- pana_post&#45;&gt;pana_devsim -->
<g id="hit_edge20" class="edge">
<title>pana_post&#45;&gt;pana_devsim</title>
<path fill="none" stroke="#000000" d="M138.3317,-1116.8294C228.6213,-1114.7452 391.3496,-1109.0793 529.648,-1094 537.7105,-1093.1209 539.589,-1091.9115 547.648,-1091 812.3251,-1061.0637 885.7697,-1112.354 1145.8863,-1055 1162.0754,-1051.4304 1179.0837,-1045.5948 1194.3627,-1039.5122"/>
<polygon fill="#000000" stroke="#000000" points="1195.7061,-1042.7443 1203.6299,-1035.7111 1193.0497,-1036.2679 1195.7061,-1042.7443"/>
<text text-anchor="middle" x="645.3164" y="-1107.8" font-family="Helvetica,sans-Serif" font-size="14.00" fill="#000000">http</text>
<text text-anchor="middle" x="645.3164" y="-1093.8" font-family="Helvetica,sans-Serif" font-size="14.00" fill="#000000">(on vlan2)</text>
</g>
<!-- pana_post&#45;&gt;intel_light -->
<g id="hit_edge21" class="edge">
<title>pana_post&#45;&gt;intel_light</title>
<path fill="none" stroke="#000000" stroke-dasharray="1,5" d="M133.3258,-1108.3673C364.6313,-1073.6522 1141.535,-956.7467 1145.8863,-952 1186.8201,-907.3462 1130.1819,-730.3343 1163.8863,-680 1172.5696,-667.0323 1186.731,-658.1098 1200.8262,-652.0441"/>
<polygon fill="#000000" stroke="#000000" points="1202.4501,-655.1682 1210.5057,-648.2865 1199.9169,-648.6426 1202.4501,-655.1682"/>
<text text-anchor="middle" x="645.3164" y="-1060.8" font-family="Helvetica,sans-Serif" font-size="14.00" fill="#000000">http</text>
<text text-anchor="middle" x="645.3164" y="-1046.8" font-family="Helvetica,sans-Serif" font-size="14.00" fill="#000000">(on vlan2)</text>
</g>
<!-- pana_post&#45;&gt;eure_car -->
<g id="hit_edge22" class="edge">
<title>pana_post&#45;&gt;eure_car</title>
<path fill="none" stroke="#000000" d="M89.5218,-1142.4377C105.6085,-1159.6499 129.6765,-1181.29 156.1634,-1191 569.1627,-1342.4043 727.7826,-1327.6781 1145.8863,-1191 1171.1763,-1182.7327 1195.4424,-1165.3991 1213.666,-1149.8112"/>
<polygon fill="#000000" stroke="#000000" points="1216.4153,-1152.0528 1221.5957,-1142.8109 1211.7826,-1146.8051 1216.4153,-1152.0528"/>
<text text-anchor="middle" x="645.3164" y="-1301.8" font-family="Helvetica,sans-Serif" font-size="14.00" fill="#000000">https+oauth2</text>
</g>
<!-- lpx -->
<g id="hit_node10_hit" class="node">
<title>lpx</title>
<polygon fill="#00ff00" stroke="transparent" points="877.9506,-36 815.5837,-36 815.5837,0 877.9506,0 877.9506,-36"/>
<text text-anchor="middle" x="846.7671" y="-20.8" font-family="Helvetica,sans-Serif" font-size="14.00" fill="#000000">Local</text>
<text text-anchor="middle" x="846.7671" y="-6.8" font-family="Helvetica,sans-Serif" font-size="14.00" fill="#000000">Proxies</text>
</g>
<!-- rpx&#45;&gt;lpx -->
<g id="hit_edge2" class="edge">
<title>rpx&#45;&gt;lpx</title>
<path fill="none" stroke="#000000" d="M472.443,-18C545.8159,-18 723.8,-18 805.0605,-18"/>
<polygon fill="#000000" stroke="#000000" points="805.4027,-21.5001 815.4027,-18 805.4026,-14.5001 805.4027,-21.5001"/>
</g>
<!-- fujitsulocalpx -->
<g id="hit_node11_hit" class="node">
<title>fujitsulocalpx</title>
<ellipse fill="#00ff00" stroke="#000000" cx="846.7671" cy="-693" rx="61.875" ry="25.4118"/>
<text text-anchor="middle" x="846.7671" y="-695.8" font-family="Helvetica,sans-Serif" font-size="14.00" fill="#000000">Local proxy</text>
<text text-anchor="middle" x="846.7671" y="-681.8" font-family="Helvetica,sans-Serif" font-size="14.00" fill="#000000">(Fujitsu)</text>
</g>
<!-- fujitsuremotepx&#45;&gt;fujitsulocalpx -->
<g id="hit_edge6" class="edge">
<title>fujitsuremotepx&#45;&gt;fujitsulocalpx</title>
<path fill="none" stroke="#000000" d="M446.5716,-832.4218C458.8765,-791.5804 489.2573,-712.8986 547.648,-680 622.7668,-637.6763 726.1218,-655.6581 789.5834,-673.5645"/>
<polygon fill="#000000" stroke="#000000" points="788.8359,-676.9921 799.4157,-676.4284 790.7935,-670.2714 788.8359,-676.9921"/>
</g>
<!-- fujitsuremotepx&#45;&gt;fujitsulocalpx -->
<g id="hit_edge32" class="edge">
<title>fujitsuremotepx&#45;&gt;fujitsulocalpx</title>
<path fill="none" stroke="#000000" d="M448.5699,-832.6511C462.8034,-795.7968 494.8321,-728.6953 547.648,-700 585.4646,-679.4539 699.6506,-682.5735 775.4953,-687.3301"/>
<polygon fill="#000000" stroke="#000000" points="775.7245,-690.8524 785.9309,-688.0098 776.1796,-683.8672 775.7245,-690.8524"/>
<text text-anchor="middle" x="645.3164" y="-702.8" font-family="Helvetica,sans-Serif" font-size="14.00" fill="#000000">websocket</text>
</g>
<!-- siem_nwprx -->
<g id="hit_node12_hit" class="node">
<title>siem_nwprx</title>
<ellipse fill="#00ff00" stroke="#000000" cx="846.7671" cy="-912" rx="85.5651" ry="25.4118"/>
<text text-anchor="middle" x="846.7671" y="-914.8" font-family="Helvetica,sans-Serif" font-size="14.00" fill="#000000">Node&#45;WoT proxy</text>
<text text-anchor="middle" x="846.7671" y="-900.8" font-family="Helvetica,sans-Serif" font-size="14.00" fill="#000000">(Siemens)</text>
</g>
<!-- fujitsuremotepx&#45;&gt;siem_nwprx -->
<g id="hit_edge33" class="edge">
<title>fujitsuremotepx&#45;&gt;siem_nwprx</title>
<path fill="none" stroke="#000000" stroke-dasharray="1,5" d="M487.3625,-877.4527C505.87,-884.1896 527.4512,-891.0387 547.648,-895 614.716,-908.1543 691.7387,-912.2837 750.8279,-913.1872"/>
<polygon fill="#000000" stroke="#000000" points="750.8547,-916.6877 760.8976,-913.3128 750.942,-909.6883 750.8547,-916.6877"/>
<text text-anchor="middle" x="645.3164" y="-914.8" font-family="Helvetica,sans-Serif" font-size="14.00" fill="#000000">websocket (trying)</text>
</g>
<!-- oracle_cloud&#45;&gt;oracle_pump -->
<g id="hit_edge12" class="edge">
<title>oracle_cloud&#45;&gt;oracle_pump</title>
<path fill="none" stroke="#000000" d="M527.5031,-970.27C534.3192,-969.8361 541.0954,-969.4085 547.648,-969 590.4081,-966.3344 900.9517,-974.9329 932.5494,-946 972.6482,-909.283 911.7958,-863.1341 950.5494,-825 954.626,-820.9886 1094.4141,-803.828 1179.9844,-793.6551"/>
<polygon fill="#000000" stroke="#000000" points="1180.6202,-797.1043 1190.1382,-792.4505 1179.7955,-790.153 1180.6202,-797.1043"/>
</g>
<!-- devs -->
<g id="hit_node13_hit" class="node">
<title>devs</title>
<polygon fill="#00ffff" stroke="transparent" points="1278.068,-36 1212.4814,-36 1212.4814,0 1278.068,0 1278.068,-36"/>
<text text-anchor="middle" x="1245.2747" y="-13.8" font-family="Helvetica,sans-Serif" font-size="14.00" fill="#000000">Devices</text>
</g>
<!-- lpx&#45;&gt;devs -->
<g id="hit_edge3" class="edge">
<title>lpx&#45;&gt;devs</title>
<path fill="none" stroke="#000000" d="M878.0374,-18C948.7168,-18 1120.914,-18 1201.8673,-18"/>
<polygon fill="#000000" stroke="#000000" points="1202.202,-21.5001 1212.2019,-18 1202.2019,-14.5001 1202.202,-21.5001"/>
</g>
<!-- fujitsusensor -->
<g id="hit_node14_hit" class="node">
<title>fujitsusensor</title>
<ellipse fill="#00ffff" stroke="#000000" cx="1245.2747" cy="-714" rx="47.7595" ry="25.4118"/>
<text text-anchor="middle" x="1245.2747" y="-716.8" font-family="Helvetica,sans-Serif" font-size="14.00" fill="#000000">Sensors</text>
<text text-anchor="middle" x="1245.2747" y="-702.8" font-family="Helvetica,sans-Serif" font-size="14.00" fill="#000000">(Fujitsu)</text>
</g>
<!-- fujitsulocalpx&#45;&gt;fujitsusensor -->
<g id="hit_edge7" class="edge">
<title>fujitsulocalpx&#45;&gt;fujitsusensor</title>
<path fill="none" stroke="#000000" d="M908.5967,-696.2582C984.8084,-700.2743 1113.3169,-707.0463 1187.5779,-710.9596"/>
<polygon fill="#000000" stroke="#000000" points="1187.515,-714.461 1197.6853,-711.4922 1187.8834,-707.4707 1187.515,-714.461"/>
</g>
<!-- fujitsulocalpx&#45;&gt;fujitsusensor -->
<g id="hit_edge34" class="edge">
<title>fujitsulocalpx&#45;&gt;fujitsusensor</title>
<path fill="none" stroke="#000000" d="M903.1301,-703.7971C918.4555,-706.3044 935.0902,-708.6366 950.5494,-710 1032.5381,-717.2309 1127.8442,-716.9546 1187.3682,-715.7501"/>
<polygon fill="#000000" stroke="#000000" points="1187.7711,-719.2422 1197.6923,-715.5245 1187.6182,-712.2439 1187.7711,-719.2422"/>
<text text-anchor="middle" x="1048.2179" y="-719.8" font-family="Helvetica,sans-Serif" font-size="14.00" fill="#000000">http</text>
</g>
<!-- fujitsulocalpx&#45;&gt;pana_devsim -->
<g id="hit_edge35" class="edge">
<title>fujitsulocalpx&#45;&gt;pana_devsim</title>
<path fill="none" stroke="#000000" d="M874.5648,-716.0406C894.7677,-732.0319 923.2465,-753.0619 950.5494,-768 1032.4153,-812.7908 1075.1111,-784.1796 1145.8863,-845 1189.0375,-882.0818 1217.9661,-942.7971 1233.0061,-981.0186"/>
<polygon fill="#000000" stroke="#000000" points="1229.8647,-982.6031 1236.7056,-990.6935 1236.403,-980.1029 1229.8647,-982.6031"/>
<text text-anchor="middle" x="1048.2179" y="-889.8" font-family="Helvetica,sans-Serif" font-size="14.00" fill="#000000">https/</text>
<text text-anchor="middle" x="1048.2179" y="-875.8" font-family="Helvetica,sans-Serif" font-size="14.00" fill="#000000">LongPoll/</text>
<text text-anchor="middle" x="1048.2179" y="-861.8" font-family="Helvetica,sans-Serif" font-size="14.00" fill="#000000">+bearer</text>
<text text-anchor="middle" x="1048.2179" y="-847.8" font-family="Helvetica,sans-Serif" font-size="14.00" fill="#000000">(websocket)</text>
</g>
<!-- fujitsulocalpx&#45;&gt;pana_home -->
<g id="hit_edge36" class="edge">
<title>fujitsulocalpx&#45;&gt;pana_home</title>
<path fill="none" stroke="#000000" d="M850.7359,-667.3507C859.4644,-620.5404 885.039,-521.8672 950.5494,-476 1022.0028,-425.9719 1072.4904,-504.1321 1145.8863,-457 1159.2922,-448.3913 1154.272,-438.704 1163.8863,-426 1178.1027,-407.2151 1196.1491,-388.2046 1211.6344,-373.0309"/>
<polygon fill="#000000" stroke="#000000" points="1214.2454,-375.3749 1219.0025,-365.9081 1209.3801,-370.3421 1214.2454,-375.3749"/>
<text text-anchor="middle" x="1048.2179" y="-520.8" font-family="Helvetica,sans-Serif" font-size="14.00" fill="#000000">https/</text>
<text text-anchor="middle" x="1048.2179" y="-506.8" font-family="Helvetica,sans-Serif" font-size="14.00" fill="#000000">LongPoll/</text>
<text text-anchor="middle" x="1048.2179" y="-492.8" font-family="Helvetica,sans-Serif" font-size="14.00" fill="#000000">+bearer</text>
<text text-anchor="middle" x="1048.2179" y="-478.8" font-family="Helvetica,sans-Serif" font-size="14.00" fill="#000000">(websocket)</text>
</g>
<!-- fujitsulocalpx&#45;&gt;intel_light -->
<g id="hit_edge37" class="edge">
<title>fujitsulocalpx&#45;&gt;intel_light</title>
<path fill="none" stroke="#000000" d="M905.9975,-685.1226C985.8702,-674.4998 1126.4425,-655.8042 1199.0196,-646.1518"/>
<polygon fill="#000000" stroke="#000000" points="1199.7678,-649.5832 1209.2191,-644.7953 1198.8449,-642.6443 1199.7678,-649.5832"/>
<text text-anchor="middle" x="1048.2179" y="-681.8" font-family="Helvetica,sans-Serif" font-size="14.00" fill="#000000">http</text>
</g>
<!-- fujitsulocalpx&#45;&gt;oracle_pump -->
<g id="hit_edge39" class="edge">
<title>fujitsulocalpx&#45;&gt;oracle_pump</title>
<path fill="none" stroke="#000000" stroke-dasharray="1,5" d="M887.9669,-712.0332C906.7322,-720.084 929.4282,-728.9735 950.5494,-735 1027.7284,-757.0216 1119.1442,-771.0422 1179.4736,-778.6959"/>
<polygon fill="#000000" stroke="#000000" points="1179.2671,-782.1972 1189.6232,-779.9607 1180.1327,-775.2509 1179.2671,-782.1972"/>
</g>
<!-- fujitsulocalpx&#45;&gt;smart_lamp -->
<g id="hit_edge38" class="edge">
<title>fujitsulocalpx&#45;&gt;smart_lamp</title>
<path fill="none" stroke="#000000" d="M852.2324,-667.5754C863.6677,-618.9974 893.8748,-511.3916 950.5494,-439 1018.0905,-352.7284 1128.9328,-284.8756 1193.7128,-249.9436"/>
<polygon fill="#000000" stroke="#000000" points="1195.749,-252.8243 1202.9256,-245.0302 1192.455,-246.6478 1195.749,-252.8243"/>
<text text-anchor="middle" x="1048.2179" y="-441.8" font-family="Helvetica,sans-Serif" font-size="14.00" fill="#000000">http</text>
</g>
<!-- fujitsulocalpx&#45;&gt;siem_event -->
<g id="hit_edge40" class="edge">
<title>fujitsulocalpx&#45;&gt;siem_event</title>
<path fill="none" stroke="#000000" d="M881.3408,-671.7449C901.0771,-660.2823 926.5925,-646.5669 950.5494,-637 1024.3599,-607.5247 1112.7861,-585.1379 1173.4025,-571.6447"/>
<polygon fill="#000000" stroke="#000000" points="1174.2467,-575.0428 1183.2601,-569.4742 1172.7414,-568.2065 1174.2467,-575.0428"/>
<text text-anchor="middle" x="1048.2179" y="-639.8" font-family="Helvetica,sans-Serif" font-size="14.00" fill="#000000">http/coap/LongPoll/(websocket)</text>
</g>
<!-- fujitsulocalpx&#45;&gt;siem_festo -->
<g id="hit_edge41" class="edge">
<title>fujitsulocalpx&#45;&gt;siem_festo</title>
<path fill="none" stroke="#000000" stroke-dasharray="1,5" d="M861.6837,-667.8926C879.329,-640.5275 911.3203,-597.6302 950.5494,-575 1027.2344,-530.7625 1065.2302,-572.4983 1145.8863,-536 1147.7269,-535.1671 1181.0109,-509.6222 1208.5609,-488.3764"/>
<polygon fill="#000000" stroke="#000000" points="1210.7369,-491.1182 1216.5161,-482.2383 1206.4608,-485.5761 1210.7369,-491.1182"/>
</g>
<!-- fujitsulocalpx&#45;&gt;eure_car -->
<g id="hit_edge42" class="edge">
<title>fujitsulocalpx&#45;&gt;eure_car</title>
<path fill="none" stroke="#000000" d="M862.8088,-717.7392C881.3966,-747.1723 912.0851,-798.2229 932.5494,-845 943.0277,-868.9512 932.4996,-882.088 950.5494,-901 1014.5385,-968.0457 1084.5753,-904.4968 1145.8863,-974 1168.8495,-1000.0314 1145.7405,-1020.4083 1163.8863,-1050 1173.6002,-1065.8412 1188.1981,-1079.8623 1202.3608,-1091.0573"/>
<polygon fill="#000000" stroke="#000000" points="1200.5268,-1094.0592 1210.6092,-1097.3146 1204.7576,-1088.4823 1200.5268,-1094.0592"/>
<text text-anchor="middle" x="1048.2179" y="-990.8" font-family="Helvetica,sans-Serif" font-size="14.00" fill="#000000">https</text>
<text text-anchor="middle" x="1048.2179" y="-976.8" font-family="Helvetica,sans-Serif" font-size="14.00" fill="#000000">+oauth2</text>
</g>
<!-- oracle_keti -->
<g id="hit_node19_hit" class="node">
<title>oracle_keti</title>
<ellipse fill="#00ffff" stroke="#000000" cx="1245.2747" cy="-1322" rx="67.3669" ry="25.4118"/>
<text text-anchor="middle" x="1245.2747" y="-1324.8" font-family="Helvetica,sans-Serif" font-size="14.00" fill="#000000">KETI Sensor</text>
<text text-anchor="middle" x="1245.2747" y="-1310.8" font-family="Helvetica,sans-Serif" font-size="14.00" fill="#000000">(Oracle)</text>
</g>
</g>
</svg>
