<?xml version="1.0" encoding="UTF-8" standalone="no"?>
<!DOCTYPE svg PUBLIC "-//W3C//DTD SVG 1.1//EN"
 "http://www.w3.org/Graphics/SVG/1.1/DTD/svg11.dtd">
<!-- Generated by graphviz version 2.40.1 (20161225.0304)
 -->
<!-- Title: 2018&#45;Sept&#45;Online&#45;Plugfest Pages: 1 -->
<svg width="1335pt" height="1355pt"
 viewBox="0.00 0.00 1334.66 1355.46" xmlns="http://www.w3.org/2000/svg" xmlns:xlink="http://www.w3.org/1999/xlink">
<g id="hit_graph0" class="graph" transform="scale(1 1) rotate(0) translate(4 1351.4558)">
<title>2018&#45;Sept&#45;Online&#45;Plugfest</title>
<polygon fill="#ffffff" stroke="transparent" points="-4,4 -4,-1351.4558 1330.6631,-1351.4558 1330.6631,4 -4,4"/>
<!-- apps -->
<g id="hit_node1_hit" class="node">
<title>apps</title>
<polygon fill="#ffa500" stroke="transparent" points="111.5724,-36 26.591,-36 26.591,0 111.5724,0 111.5724,-36"/>
<text text-anchor="middle" x="69.0817" y="-13.8" font-family="Helvetica,sans-Serif" font-size="14.00" fill="#000000">Application</text>
</g>
<!-- rpx -->
<g id="hit_node7_hit" class="node">
<title>rpx</title>
<polygon fill="#00ff00" stroke="transparent" points="472.35,-36 407.309,-36 407.309,0 472.35,0 472.35,-36"/>
<text text-anchor="middle" x="439.8295" y="-20.8" font-family="Helvetica,sans-Serif" font-size="14.00" fill="#000000">Remote</text>
<text text-anchor="middle" x="439.8295" y="-6.8" font-family="Helvetica,sans-Serif" font-size="14.00" fill="#000000">Proxies</text>
</g>
<!-- apps&#45;&gt;rpx -->
<g id="hit_edge1" class="edge">
<title>apps&#45;&gt;rpx</title>
<path fill="none" stroke="#000000" d="M111.6112,-18C182.8012,-18 325.3078,-18 396.8182,-18"/>
<polygon fill="#000000" stroke="#000000" points="397.2506,-21.5001 407.2505,-18 397.2505,-14.5001 397.2506,-21.5001"/>
</g>
<!-- fujitsu_nr -->
<g id="hit_node2_hit" class="node">
<title>fujitsu_nr</title>
<ellipse fill="#ffa500" stroke="#000000" cx="69.0817" cy="-521" rx="55.7618" ry="25.4118"/>
<text text-anchor="middle" x="69.0817" y="-523.8" font-family="Helvetica,sans-Serif" font-size="14.00" fill="#000000">NodeRED</text>
<text text-anchor="middle" x="69.0817" y="-509.8" font-family="Helvetica,sans-Serif" font-size="14.00" fill="#000000">(Fujitsu)</text>
</g>
<!-- fujitsuremotepx -->
<g id="hit_node8_hit" class="node">
<title>fujitsuremotepx</title>
<ellipse fill="#00ff00" stroke="#000000" cx="439.8295" cy="-858" rx="72.8685" ry="25.4118"/>
<text text-anchor="middle" x="439.8295" y="-860.8" font-family="Helvetica,sans-Serif" font-size="14.00" fill="#000000">Remote proxy</text>
<text text-anchor="middle" x="439.8295" y="-846.8" font-family="Helvetica,sans-Serif" font-size="14.00" fill="#000000">(Fujitsu)</text>
</g>
<!-- pana_devsim -->
<g id="hit_node15_hit" class="node">
<title>pana_devsim</title>
<ellipse fill="#00ffff" stroke="#000000" cx="1245.2747" cy="-1016" rx="64.2739" ry="25.4118"/>
<text text-anchor="middle" x="1245.2747" y="-1018.8" font-family="Helvetica,sans-Serif" font-size="14.00" fill="#000000">Device sim.</text>
<text text-anchor="middle" x="1245.2747" y="-1004.8" font-family="Helvetica,sans-Serif" font-size="14.00" fill="#000000">(Panasonic)</text>
</g>
<!-- pana_home -->
<g id="hit_node16_hit" class="node">
<title>pana_home</title>
<ellipse fill="#00ffff" stroke="#000000" cx="1245.2747" cy="-342" rx="75.8599" ry="25.4118"/>
<text text-anchor="middle" x="1245.2747" y="-344.8" font-family="Helvetica,sans-Serif" font-size="14.00" fill="#000000">Home Devices</text>
<text text-anchor="middle" x="1245.2747" y="-330.8" font-family="Helvetica,sans-Serif" font-size="14.00" fill="#000000">(Panasonic)</text>
</g>
<!-- intel_light -->
<g id="hit_node17_hit" class="node">
<title>intel_light</title>
<ellipse fill="#00ffff" stroke="#000000" cx="1245.2747" cy="-640" rx="36.737" ry="25.4118"/>
<text text-anchor="middle" x="1245.2747" y="-642.8" font-family="Helvetica,sans-Serif" font-size="14.00" fill="#000000">Light</text>
<text text-anchor="middle" x="1245.2747" y="-628.8" font-family="Helvetica,sans-Serif" font-size="14.00" fill="#000000">(Intel)</text>
</g>
<!-- oracle_pump -->
<g id="hit_node18_hit" class="node">
<title>oracle_pump</title>
<ellipse fill="#00ffff" stroke="#000000" cx="1245.2747" cy="-786" rx="56.9754" ry="25.4118"/>
<text text-anchor="middle" x="1245.2747" y="-788.8" font-family="Helvetica,sans-Serif" font-size="14.00" fill="#000000">BluePump</text>
<text text-anchor="middle" x="1245.2747" y="-774.8" font-family="Helvetica,sans-Serif" font-size="14.00" fill="#000000">(Oracle)</text>
</g>
<!-- smart_lamp -->
<g id="hit_node21_hit" class="node">
<title>smart_lamp</title>
<ellipse fill="#00ffff" stroke="#000000" cx="1245.2747" cy="-224" rx="74.0436" ry="25.4118"/>
<text text-anchor="middle" x="1245.2747" y="-226.8" font-family="Helvetica,sans-Serif" font-size="14.00" fill="#000000">Lamp</text>
<text text-anchor="middle" x="1245.2747" y="-212.8" font-family="Helvetica,sans-Serif" font-size="14.00" fill="#000000">(SmartThings)</text>
</g>
<!-- siem_event -->
<g id="hit_node22_hit" class="node">
<title>siem_event</title>
<ellipse fill="#00ffff" stroke="#000000" cx="1245.2747" cy="-557" rx="70.9899" ry="25.4118"/>
<text text-anchor="middle" x="1245.2747" y="-559.8" font-family="Helvetica,sans-Serif" font-size="14.00" fill="#000000">Event Source</text>
<text text-anchor="middle" x="1245.2747" y="-545.8" font-family="Helvetica,sans-Serif" font-size="14.00" fill="#000000">(Siemens)</text>
</g>
<!-- siem_festo -->
<g id="hit_node24_hit" class="node">
<title>siem_festo</title>
<ellipse fill="#00ffff" stroke="#000000" cx="1245.2747" cy="-460" rx="56.9657" ry="25.4118"/>
<text text-anchor="middle" x="1245.2747" y="-462.8" font-family="Helvetica,sans-Serif" font-size="14.00" fill="#000000">Festo Live</text>
<text text-anchor="middle" x="1245.2747" y="-448.8" font-family="Helvetica,sans-Serif" font-size="14.00" fill="#000000">(Siemens)</text>
</g>
<!-- eure_car -->
<g id="hit_node25_hit" class="node">
<title>eure_car</title>
<ellipse fill="#00ffff" stroke="#000000" cx="1245.2747" cy="-1119" rx="65.4495" ry="25.4118"/>
<text text-anchor="middle" x="1245.2747" y="-1121.8" font-family="Helvetica,sans-Serif" font-size="14.00" fill="#000000">MyCarThing</text>
<text text-anchor="middle" x="1245.2747" y="-1107.8" font-family="Helvetica,sans-Serif" font-size="14.00" fill="#000000">(Eurecom)</text>
</g>
<!-- hitachinr -->
<g id="hit_node3_hit" class="node">
<title>hitachinr</title>
<ellipse fill="#ffa500" stroke="#000000" cx="69.0817" cy="-878" rx="55.7618" ry="25.4118"/>
<text text-anchor="middle" x="69.0817" y="-880.8" font-family="Helvetica,sans-Serif" font-size="14.00" fill="#000000">NodeRED</text>
<text text-anchor="middle" x="69.0817" y="-866.8" font-family="Helvetica,sans-Serif" font-size="14.00" fill="#000000">(Hitachi)</text>
</g>
<!-- hitachinr&#45;&gt;fujitsuremotepx -->
<g id="hit_edge5" class="edge">
<title>hitachinr&#45;&gt;fujitsuremotepx</title>
<path fill="none" stroke="#000000" d="M120.9673,-868.4535C132.5157,-866.6657 144.7258,-865.0354 156.1634,-864 223.3604,-857.9172 299.8586,-856.6259 356.4671,-856.7402"/>
<polygon fill="#000000" stroke="#000000" points="356.7865,-860.2412 366.799,-856.777 356.8115,-853.2413 356.7865,-860.2412"/>
<text text-anchor="middle" x="244.0872" y="-866.8" font-family="Helvetica,sans-Serif" font-size="14.00" fill="#000000">http+basic</text>
</g>
<!-- oracle_cloud -->
<g id="hit_node9_hit" class="node">
<title>oracle_cloud</title>
<ellipse fill="#00ff00" stroke="#000000" cx="439.8295" cy="-976" rx="89.6373" ry="25.4118"/>
<text text-anchor="middle" x="439.8295" y="-978.8" font-family="Helvetica,sans-Serif" font-size="14.00" fill="#000000">IoT Cloud Service</text>
<text text-anchor="middle" x="439.8295" y="-964.8" font-family="Helvetica,sans-Serif" font-size="14.00" fill="#000000">(Oracle)</text>
</g>
<!-- hitachinr&#45;&gt;oracle_cloud -->
<g id="hit_edge11" class="edge">
<title>hitachinr&#45;&gt;oracle_cloud</title>
<path fill="none" stroke="#000000" d="M88.8682,-902.1218C104.9614,-919.8509 129.3355,-942.7371 156.1634,-954 173.0464,-961.0878 265.5351,-967.3455 340.3837,-971.357"/>
<polygon fill="#000000" stroke="#000000" points="340.6477,-974.8757 350.8183,-971.9079 341.0168,-967.8854 340.6477,-974.8757"/>
<text text-anchor="middle" x="244.0872" y="-972.8" font-family="Helvetica,sans-Serif" font-size="14.00" fill="#000000">https+basic</text>
</g>
<!-- hitachinr&#45;&gt;pana_devsim -->
<g id="hit_edge8" class="edge">
<title>hitachinr&#45;&gt;pana_devsim</title>
<path fill="none" stroke="#000000" d="M124.0729,-883.0067C177.3377,-888.0566 260.3426,-896.4552 332.0111,-906 607.9793,-942.7534 673.4806,-977.758 950.5494,-1005 1025.3345,-1012.353 1111.2355,-1014.8905 1170.9293,-1015.7172"/>
<polygon fill="#000000" stroke="#000000" points="1170.9757,-1019.218 1181.019,-1015.8441 1171.0638,-1012.2185 1170.9757,-1019.218"/>
<text text-anchor="middle" x="645.3164" y="-993.8" font-family="Helvetica,sans-Serif" font-size="14.00" fill="#000000">https+bearer;</text>
<text text-anchor="middle" x="645.3164" y="-979.8" font-family="Helvetica,sans-Serif" font-size="14.00" fill="#000000">longpoll</text>
</g>
<!-- hitachinr&#45;&gt;pana_home -->
<g id="hit_edge9" class="edge">
<title>hitachinr&#45;&gt;pana_home</title>
<path fill="none" stroke="#000000" d="M76.5859,-852.681C88.1959,-817.6191 113.715,-754.3861 156.1634,-717 293.1277,-596.3698 368.6017,-628.4019 547.648,-593 633.749,-575.9757 662.5256,-599.0646 742.9849,-564 851.2728,-516.8076 843.2365,-447.3692 950.5494,-398 1017.083,-367.3913 1099.4463,-353.5124 1160.1758,-347.2195"/>
<polygon fill="#000000" stroke="#000000" points="1160.8832,-350.6668 1170.4912,-346.2018 1160.1958,-343.7007 1160.8832,-350.6668"/>
<text text-anchor="middle" x="645.3164" y="-609.8" font-family="Helvetica,sans-Serif" font-size="14.00" fill="#000000">https+bearer;</text>
<text text-anchor="middle" x="645.3164" y="-595.8" font-family="Helvetica,sans-Serif" font-size="14.00" fill="#000000">longpoll</text>
</g>
<!-- hitachinr&#45;&gt;intel_light -->
<g id="hit_edge10" class="edge">
<title>hitachinr&#45;&gt;intel_light</title>
<path fill="none" stroke="#000000" d="M91.0035,-854.5166C107.6565,-837.6877 131.783,-815.3699 156.1634,-800 196.0221,-774.8723 501.4437,-646.2347 547.648,-637 672.5158,-612.0432 1062.9156,-630.1081 1198.4019,-637.3581"/>
<polygon fill="#000000" stroke="#000000" points="1198.2884,-640.857 1208.4627,-637.9018 1198.6662,-633.8672 1198.2884,-640.857"/>
<text text-anchor="middle" x="645.3164" y="-639.8" font-family="Helvetica,sans-Serif" font-size="14.00" fill="#000000">https+basic</text>
</g>
<!-- keti_env -->
<g id="hit_node26_hit" class="node">
<title>keti_env</title>
<ellipse fill="#00ffff" stroke="#000000" cx="1245.2747" cy="-1253" rx="81.277" ry="25.4118"/>
<text text-anchor="middle" x="1245.2747" y="-1255.8" font-family="Helvetica,sans-Serif" font-size="14.00" fill="#000000">Env. IoT Sensor</text>
<text text-anchor="middle" x="1245.2747" y="-1241.8" font-family="Helvetica,sans-Serif" font-size="14.00" fill="#000000">(KETI)</text>
</g>
<!-- hitachinr&#45;&gt;keti_env -->
<g id="hit_edge4" class="edge">
<title>hitachinr&#45;&gt;keti_env</title>
<path fill="none" stroke="#000000" d="M87.9921,-902.3542C102.8652,-922.236 123.4609,-951.4488 138.1634,-979 148.3048,-998.004 139.4839,-1010.3693 156.1634,-1024 217.6743,-1074.2674 254.7036,-1037.7255 332.0111,-1056 429.1783,-1078.9691 449.6111,-1100.0841 547.648,-1119 633.2944,-1135.5252 656.887,-1124.0157 742.9849,-1138 898.3589,-1163.2364 1077.4403,-1208.1102 1174.2368,-1233.7042"/>
<polygon fill="#000000" stroke="#000000" points="1173.3512,-1237.0902 1183.9143,-1236.2713 1175.146,-1230.3242 1173.3512,-1237.0902"/>
<text text-anchor="middle" x="645.3164" y="-1140.8" font-family="Helvetica,sans-Serif" font-size="14.00" fill="#000000">http</text>
</g>
<!-- pana_nr -->
<g id="hit_node4_hit" class="node">
<title>pana_nr</title>
<ellipse fill="#ffa500" stroke="#000000" cx="69.0817" cy="-167" rx="64.2739" ry="25.4118"/>
<text text-anchor="middle" x="69.0817" y="-169.8" font-family="Helvetica,sans-Serif" font-size="14.00" fill="#000000">NodeRED</text>
<text text-anchor="middle" x="69.0817" y="-155.8" font-family="Helvetica,sans-Serif" font-size="14.00" fill="#000000">(Panasonic)</text>
</g>
<!-- smart_illumi -->
<g id="hit_node20_hit" class="node">
<title>smart_illumi</title>
<ellipse fill="#00ffff" stroke="#000000" cx="1245.2747" cy="-79" rx="67.3476" ry="25.4118"/>
<text text-anchor="middle" x="1245.2747" y="-81.8" font-family="Helvetica,sans-Serif" font-size="14.00" fill="#000000">Illumi&#45;sensor</text>
<text text-anchor="middle" x="1245.2747" y="-67.8" font-family="Helvetica,sans-Serif" font-size="14.00" fill="#000000">(Oracle)</text>
</g>
<!-- siem_park -->
<g id="hit_node23_hit" class="node">
<title>siem_park</title>
<ellipse fill="#00ffff" stroke="#000000" cx="1245.2747" cy="-148" rx="78.9914" ry="25.4118"/>
<text text-anchor="middle" x="1245.2747" y="-150.8" font-family="Helvetica,sans-Serif" font-size="14.00" fill="#000000">Parking Sensor</text>
<text text-anchor="middle" x="1245.2747" y="-136.8" font-family="Helvetica,sans-Serif" font-size="14.00" fill="#000000">(Siemens)</text>
</g>
<!-- pana_bwr -->
<g id="hit_node5_hit" class="node">
<title>pana_bwr</title>
<ellipse fill="#ffa500" stroke="#000000" cx="69.0817" cy="-1013" rx="64.2739" ry="25.4118"/>
<text text-anchor="middle" x="69.0817" y="-1015.8" font-family="Helvetica,sans-Serif" font-size="14.00" fill="#000000">Browser</text>
<text text-anchor="middle" x="69.0817" y="-1001.8" font-family="Helvetica,sans-Serif" font-size="14.00" fill="#000000">(Panasonic)</text>
</g>
<!-- pana_post -->
<g id="hit_node6_hit" class="node">
<title>pana_post</title>
<ellipse fill="#ffa500" stroke="#000000" cx="69.0817" cy="-1118" rx="69.1635" ry="25.4118"/>
<text text-anchor="middle" x="69.0817" y="-1120.8" font-family="Helvetica,sans-Serif" font-size="14.00" fill="#000000">Postman/curl</text>
<text text-anchor="middle" x="69.0817" y="-1106.8" font-family="Helvetica,sans-Serif" font-size="14.00" fill="#000000">(Panasonic)</text>
</g>
<!-- lpx -->
<g id="hit_node10_hit" class="node">
<title>lpx</title>
<polygon fill="#00ff00" stroke="transparent" points="877.9506,-36 815.5837,-36 815.5837,0 877.9506,0 877.9506,-36"/>
<text text-anchor="middle" x="846.7671" y="-20.8" font-family="Helvetica,sans-Serif" font-size="14.00" fill="#000000">Local</text>
<text text-anchor="middle" x="846.7671" y="-6.8" font-family="Helvetica,sans-Serif" font-size="14.00" fill="#000000">Proxies</text>
</g>
<!-- rpx&#45;&gt;lpx -->
<g id="hit_edge2" class="edge">
<title>rpx&#45;&gt;lpx</title>
<path fill="none" stroke="#000000" d="M472.443,-18C545.8159,-18 723.8,-18 805.0605,-18"/>
<polygon fill="#000000" stroke="#000000" points="805.4027,-21.5001 815.4027,-18 805.4026,-14.5001 805.4027,-21.5001"/>
</g>
<!-- fujitsulocalpx -->
<g id="hit_node11_hit" class="node">
<title>fujitsulocalpx</title>
<ellipse fill="#00ff00" stroke="#000000" cx="846.7671" cy="-693" rx="61.875" ry="25.4118"/>
<text text-anchor="middle" x="846.7671" y="-695.8" font-family="Helvetica,sans-Serif" font-size="14.00" fill="#000000">Local proxy</text>
<text text-anchor="middle" x="846.7671" y="-681.8" font-family="Helvetica,sans-Serif" font-size="14.00" fill="#000000">(Fujitsu)</text>
</g>
<!-- fujitsuremotepx&#45;&gt;fujitsulocalpx -->
<g id="hit_edge6" class="edge">
<title>fujitsuremotepx&#45;&gt;fujitsulocalpx</title>
<path fill="none" stroke="#000000" d="M446.5716,-832.4218C458.8765,-791.5804 489.2573,-712.8986 547.648,-680 622.7668,-637.6763 726.1218,-655.6581 789.5834,-673.5645"/>
<polygon fill="#000000" stroke="#000000" points="788.8359,-676.9921 799.4157,-676.4284 790.7935,-670.2714 788.8359,-676.9921"/>
</g>
<!-- siem_nwprx -->
<g id="hit_node12_hit" class="node">
<title>siem_nwprx</title>
<ellipse fill="#00ff00" stroke="#000000" cx="846.7671" cy="-912" rx="85.5651" ry="25.4118"/>
<text text-anchor="middle" x="846.7671" y="-914.8" font-family="Helvetica,sans-Serif" font-size="14.00" fill="#000000">Node&#45;WoT proxy</text>
<text text-anchor="middle" x="846.7671" y="-900.8" font-family="Helvetica,sans-Serif" font-size="14.00" fill="#000000">(Siemens)</text>
</g>
<!-- oracle_cloud&#45;&gt;oracle_pump -->
<g id="hit_edge12" class="edge">
<title>oracle_cloud&#45;&gt;oracle_pump</title>
<path fill="none" stroke="#000000" d="M527.5031,-970.27C534.3192,-969.8361 541.0954,-969.4085 547.648,-969 590.4081,-966.3344 900.9517,-974.9329 932.5494,-946 972.6482,-909.283 911.7958,-863.1341 950.5494,-825 954.626,-820.9886 1094.4141,-803.828 1179.9844,-793.6551"/>
<polygon fill="#000000" stroke="#000000" points="1180.6202,-797.1043 1190.1382,-792.4505 1179.7955,-790.153 1180.6202,-797.1043"/>
</g>
<!-- devs -->
<g id="hit_node13_hit" class="node">
<title>devs</title>
<polygon fill="#00ffff" stroke="transparent" points="1278.068,-36 1212.4814,-36 1212.4814,0 1278.068,0 1278.068,-36"/>
<text text-anchor="middle" x="1245.2747" y="-13.8" font-family="Helvetica,sans-Serif" font-size="14.00" fill="#000000">Devices</text>
</g>
<!-- lpx&#45;&gt;devs -->
<g id="hit_edge3" class="edge">
<title>lpx&#45;&gt;devs</title>
<path fill="none" stroke="#000000" d="M878.0374,-18C948.7168,-18 1120.914,-18 1201.8673,-18"/>
<polygon fill="#000000" stroke="#000000" points="1202.202,-21.5001 1212.2019,-18 1202.2019,-14.5001 1202.202,-21.5001"/>
</g>
<!-- fujitsusensor -->
<g id="hit_node14_hit" class="node">
<title>fujitsusensor</title>
<ellipse fill="#00ffff" stroke="#000000" cx="1245.2747" cy="-714" rx="47.7595" ry="25.4118"/>
<text text-anchor="middle" x="1245.2747" y="-716.8" font-family="Helvetica,sans-Serif" font-size="14.00" fill="#000000">Sensors</text>
<text text-anchor="middle" x="1245.2747" y="-702.8" font-family="Helvetica,sans-Serif" font-size="14.00" fill="#000000">(Fujitsu)</text>
</g>
<!-- fujitsulocalpx&#45;&gt;fujitsusensor -->
<g id="hit_edge7" class="edge">
<title>fujitsulocalpx&#45;&gt;fujitsusensor</title>
<path fill="none" stroke="#000000" d="M908.5967,-696.2582C984.8084,-700.2743 1113.3169,-707.0463 1187.5779,-710.9596"/>
<polygon fill="#000000" stroke="#000000" points="1187.515,-714.461 1197.6853,-711.4922 1187.8834,-707.4707 1187.515,-714.461"/>
</g>
<!-- oracle_keti -->
<g id="hit_node19_hit" class="node">
<title>oracle_keti</title>
<ellipse fill="#00ffff" stroke="#000000" cx="1245.2747" cy="-1322" rx="67.3669" ry="25.4118"/>
<text text-anchor="middle" x="1245.2747" y="-1324.8" font-family="Helvetica,sans-Serif" font-size="14.00" fill="#000000">KETI Sensor</text>
<text text-anchor="middle" x="1245.2747" y="-1310.8" font-family="Helvetica,sans-Serif" font-size="14.00" fill="#000000">(Oracle)</text>
</g>
</g>
</svg>
